<?xml version="1.0" encoding="UTF-8"?>
<!DOCTYPE svg PUBLIC "-//W3C//DTD SVG 1.1//EN" "http://www.w3.org/Graphics/SVG/1.1/DTD/svg11.dtd">
<!-- Creator: CorelDRAW -->
<svg xmlns="http://www.w3.org/2000/svg" xml:space="preserve" width="6.82666in" height="6.82666in" style="shape-rendering:geometricPrecision; text-rendering:geometricPrecision; image-rendering:optimizeQuality; fill-rule:evenodd; clip-rule:evenodd"
viewBox="0 0 6.82666 6.82666"
 xmlns:xlink="http://www.w3.org/1999/xlink">
 <defs>
  <style type="text/css">
   <![CDATA[
    .fil11 {fill:none}
    .fil10 {fill:#9A9B9B}
    .fil7 {fill:#AEAEAF}
    .fil9 {fill:#CBAA0F}
    .fil8 {fill:#D4D4D5}
    .fil1 {fill:#838383;fill-rule:nonzero}
    .fil6 {fill:#8B8B8B;fill-rule:nonzero}
    .fil0 {fill:#8C8D8D;fill-rule:nonzero}
    .fil2 {fill:#959595;fill-rule:nonzero}
    .fil3 {fill:#A0A0A0;fill-rule:nonzero}
    .fil5 {fill:#A3A3A3;fill-rule:nonzero}
    .fil4 {fill:darkgray;fill-rule:nonzero}
   ]]>
  </style>
 </defs>
 <g id="Layer_x0020_1">
  <metadata id="CorelCorpID_0Corel-Layer"/>
  <g id="_515903112">
   <g>
    <path id="_525648896" class="fil0" d="M2.5171 2.83789c0,0.0588504 0.402823,0.106669 0.461673,0.106669 0.0589094,0 0.106669,-0.0477598 0.106669,-0.106669l0 -0.384559c0,-0.0589094 -0.0477598,-0.106669 -0.106669,-0.106669l-0.355004 0c-0.0589094,0 -0.106669,0.0477598 -0.106669,0.106669l0 0.384559z"/>
    <path id="_525648512" class="fil0" d="M4.20063 2.94456c0.0589094,0 0.106669,-0.0477598 0.106669,-0.106669l0 -0.384559c0,-0.0589094 -0.0477598,-0.106669 -0.106669,-0.106669l-0.355004 0c-0.0589094,0 -0.106669,0.0477598 -0.106669,0.106669l0 0.384559c0,0.0589094 0.0477598,0.106669 0.106669,0.106669 0.209429,0 0.145575,0 0.355004,0z"/>
   </g>
   <g>
    <path id="_525648344" class="fil1" d="M3.08544 2.46902l0 -0.0156929c0,-0.0589094 -0.0477598,-0.106669 -0.106669,-0.106669l-0.355004 0c-0.0589094,0 -0.106669,0.0477598 -0.106669,0.106669l0 0.0156929 0.568343 0z"/>
    <path id="_525648032" class="fil1" d="M4.3073 2.46902l0 -0.0156929c0,-0.0589094 -0.0477598,-0.106669 -0.106669,-0.106669l-0.355004 0c-0.0589094,0 -0.106669,0.0477598 -0.106669,0.106669l0 0.0156929 0.568343 0z"/>
   </g>
   <path id="_525647720" class="fil2" d="M2.3092 2.34903c0.000169291,0.026248 0.00172835,0.0554331 0.00349213,0.0881969 0.000956693,0.017815 0.00196457,0.0364882 0.00315354,0.0614449l0.00470472 0.0986732 0.000299213 -1.5748e-005c0.00261024,0.0547795 -0.0365866,0.101874 -0.0894882,0.110378 -0.232268,0.0534724 -0.463902,0.0876339 -0.694827,0.100878 -0.233118,0.0133701 -0.465366,0.00528346 -0.696657,-0.0259055l0.0141654 -0.105417 -0.0142559 0.105709c-0.058378,-0.00787008 -0.0993228,-0.0615866 -0.0914528,-0.119965 0.00153543,-0.0113898 0.00482677,-0.0221142 0.00954724,-0.0319449l0.0847441 -0.225945c0.00169291,3.14961e-005 0.00339764,1.5748e-005 0.00511417,-5.11811e-005l1.46146 -0.0560354z"/>
   <path id="_525648152" class="fil2" d="M5.98367 2.40414l0.0884409 0.235803 0.000377953 -0.000141732c0.020685,0.0551575 -0.00725591,0.11665 -0.0624134,0.137335 -0.0110157,0.00412992 -0.0222835,0.0063189 -0.0334291,0.00674016 -0.227516,0.0244488 -0.45637,0.0304016 -0.686524,0.0177638 -0.232972,-0.0127913 -0.466402,-0.0444567 -0.700268,-0.095063l0.0225 -0.104165 -0.0225591 0.104256c-0.0543937,-0.0117677 -0.0900354,-0.0630906 -0.083311,-0.11728l0.00432677 -0.0907165c0.00118898,-0.0249567 0.00219685,-0.0436299 0.00315354,-0.0614449 0.0017874,-0.0332244 0.00337008,-0.0627717 0.0035,-0.0893031l1.4662 0.0562165z"/>
   <path id="_525648008" class="fil3" d="M1.20098 1.60413c0.751346,-0.182992 1.482,-0.274504 2.21235,-0.274504 0.732701,0 1.4657,0.0920906 2.2196,0.27626l-0.0259606 0.103335 0.026374 -0.103496c0.0394528,0.0096378 0.0684646,0.0392126 0.0786299,0.0750157l0.285319 0.744807 -1.47256 -0.0552795c-0.0383071,-0.0875079 -0.158366,-0.127272 -0.50189,-0.184874 -0.195142,-0.0327205 -0.401965,-0.0490787 -0.609512,-0.0490787 -0.207543,0 -0.41437,0.0163583 -0.609508,0.0490787 -0.344996,0.0578504 -0.46461,0.0977047 -0.502386,0.185996l-1.47249 0.0552795 0.289039 -0.754531 0.101713 0.0370827 -0.102008 -0.0374606c0.0140472,-0.0366811 0.0465315,-0.0613189 0.0832874,-0.0676299z"/>
   <g>
    <path id="_525647888" class="fil3" d="M3.6965 3.14047l0 0zm2.10473 1.33002c0.00227559,0.000444882 0.00453543,0.000929134 0.00677953,0.00144882l0.0371772 0.00732283 -0.496717 -1.4763c-0.00969291,-0.0388937 -0.0409961,-0.0706772 -0.0829213,-0.0789331l-0.0206142 0.104657 0.0204173 -0.104583c-0.584835,-0.115197 -1.18572,-0.175906 -1.804,-0.177461 -0.614551,-0.00154331 -1.24461,0.0556024 -1.89137,0.176012 -0.0399449,0.00445669 -0.0756732,0.0314094 -0.0893346,0.0720157l0.00026378 0.00026378 -0.501685 1.49106c0.0186378,-0.00851575 0.0387165,-0.014563 0.059811,-0.0177008 1.65256,-0.0579882 2.98878,-0.132236 4.7622,0.00219291zm-2.09904 -1.27857l0 0zm-0.578189 -0.072937l-0.00243307 -0.0785551 -0.000232283 3.93701e-006c-0.000846457,-0.0275591 0.0272677,-0.0504449 0.0627913,-0.0511063 0.0017874,-3.14961e-005 0.00354331,-7.87402e-006 0.00529921,7.48031e-005 0.0711024,-0.00143701 0.142925,-0.00232677 0.215429,-0.00262992 0.0723898,-0.000291339 0.144657,7.87402e-006 0.216693,0.000944882l7.48031e-005 -0.000185039c0.0340315,0.000440945 0.0614528,0.0213189 0.0631772,0.0473031l0.0117087 0.105638 0.000137795 0.0015315 0.0055748 0.0499134c0.00304724,0.0274724 -0.023185,0.0516575 -0.0585945,0.0540197 -0.00416535,0.000275591 -0.00826378,0.000244094 -0.0122795,-8.66142e-005 -0.0724843,-0.000933071 -0.14476,-0.00125591 -0.216772,-0.00101969 -0.0735512,0.000244094 -0.147744,0.00109449 -0.222496,0.00248425l3.93701e-006 0.000181102c-0.0355276,0.000665354 -0.0650315,-0.0211457 -0.0658858,-0.0487047 -4.33071e-005,-0.00143701 -3.93701e-006,-0.00285827 0.000110236,-0.00427165l-0.00230709 -0.0755354zm0.958689 0.045311c-0.0056811,-0.027815 -0.0113031,-0.0553307 -0.0195394,-0.0965433l-0.000248031 2.75591e-005c-0.00544488,-0.0272362 0.0186063,-0.052752 0.0537165,-0.0569803 0.00732677,-0.00088189 0.0145394,-0.00076378 0.0214409,0.000212598 0.0761417,0.00597638 0.147382,0.0120157 0.213622,0.0181024 0.0681102,0.00625591 0.140969,0.0134843 0.2185,0.0216575l0.000122047 -0.000125984c0.0289843,0.00305906 0.0508268,0.0206535 0.0549646,0.0420118l0.0217362 0.0785197c0.00507874,0.0182992 0.0120118,0.0430591 0.0231102,0.0825236l5.90551e-005 -1.1811e-005c0.00757874,0.0269331 -0.0144252,0.0535394 -0.0491457,0.0594173 -0.00909449,0.00154331 -0.0181693,0.0015 -0.0267362,0.000125984 -0.0702323,-0.00777165 -0.143157,-0.0153386 -0.219035,-0.0226772 -0.0790118,-0.00764173 -0.153331,-0.0143268 -0.222606,-0.0199567l-0.000169291 0.00011811c-0.0316024,-0.00257087 -0.0554528,-0.0224843 -0.0575,-0.0462677l-0.0122913 -0.0601535zm-1.34291 -0.0309213c-0.0021063,0.0330236 -0.00422047,0.0662165 -0.00595669,0.0953071l0.000181102 0.000173228c-0.00151181,0.0252244 -0.0269173,0.0452008 -0.0584567,0.0473976 -0.0766378,0.00726378 -0.150744,0.0148583 -0.222079,0.0227677 -0.0755,0.00837402 -0.149201,0.0171339 -0.220913,0.0262795l3.14961e-005 0.000129921c-0.035063,0.0044685 -0.0681772,-0.0139567 -0.0739331,-0.0411575 -0.00120472,-0.0056811 -0.00111417,-0.0112913 9.05512e-005,-0.0166614l0.0124449 -0.0877008 0.0100827 -0.0714331 -0.000114173 -1.5748e-005c0.00345276,-0.0242795 0.028815,-0.0425591 0.059122,-0.044311 0.0729528,-0.00900394 0.144016,-0.0172402 0.213157,-0.024689 0.0757441,-0.00816535 0.148665,-0.0154724 0.218728,-0.0219016l-1.1811e-005 -4.72441e-005c0.0352953,-0.00324016 0.0672992,0.0163346 0.0714724,0.0437087 0.000625984,0.0041063 0.00057874,0.00815748 -4.72441e-005,0.0120866l-0.00379921 0.0600669zm1.00133 0.404402l0 0zm-0.541504 -0.223205c0.152689,-0.00279921 0.3055,-0.00316929 0.458433,-0.000992126l0.000173228 -0.000185039c0.0339882,0.000484252 0.0613228,0.0213189 0.0630709,0.0472559l0.00981102 0.0874724 0.0100472 0.0896496c0.00305118,0.0274646 -0.023185,0.0516575 -0.0585945,0.0540197 -0.00424409,0.000279528 -0.00843701,0.000232283 -0.0125236,-0.000110236 -0.0770984,-0.00126772 -0.153882,-0.00185433 -0.230248,-0.00178346 -0.0784252,8.26772e-005 -0.157413,0.00088189 -0.23687,0.00237795l3.93701e-006 0.000181102c-0.0355276,0.000669291 -0.0650354,-0.0211378 -0.0658937,-0.0486969 -4.33071e-005,-0.00142913 0,-0.00284646 9.84252e-005,-0.00425197l-0.00270079 -0.0857992 -0.00283465 -0.088063 -0.00023622 3.93701e-006c-0.000889764,-0.027563 0.0271929,-0.0504646 0.0627205,-0.0511535 0.0018622,-3.54331e-005 0.0037126,-7.87402e-006 0.00554331,7.48031e-005zm1.07985 0.400571c0.0789803,0.00754331 0.160516,0.0160236 0.244634,0.0254252 0.0804331,0.00898819 0.162776,0.0188819 0.247039,0.0296575l0.00015748 -0.000114173c0.0282402,0.00361417 0.0491378,0.0209843 0.0531772,0.041815l0.0279882 0.10135 0.0295945 0.106437 5.51181e-005 -1.1811e-005c0.00750394,0.0269449 -0.0145787,0.0535157 -0.049315,0.0593346 -0.00954331,0.00159843 -0.0190512,0.00146063 -0.0279843,-0.000133858 -0.0817756,-0.0109488 -0.164874,-0.0214252 -0.249409,-0.031378 -0.0904921,-0.0106575 -0.174681,-0.0199213 -0.252343,-0.0277244l-0.000232283 0.000169291c-0.0310315,-0.00312205 -0.0540197,-0.0229094 -0.0559488,-0.0462559 -0.00764567,-0.0381142 -0.0152953,-0.0758228 -0.0228386,-0.113083l-0.0179016 -0.0885 -0.000244094 3.14961e-005c-0.00547244,-0.0272362 0.0185512,-0.0527717 0.0536614,-0.0570197 0.00677559,-0.000822835 0.0134724,-0.000787402 0.0199094,0zm-0.494555 0.214787l0 0zm-0.573496 -0.248799c0.0795472,-0.00132283 0.159551,-0.00194488 0.239886,-0.00188189 0.0833504,7.08661e-005 0.16615,0.000870079 0.248327,0.00236614l3.93701e-006 -0.000181102c0.0350591,0.000637795 0.0629016,0.0229173 0.0628346,0.0499882 0.011,0.0961496 0.0183976,0.161602 0.0224724,0.198504 0.00301575,0.0274685 -0.0232559,0.0516339 -0.0586614,0.0539724 -0.00433465,0.000287402 -0.00860236,0.000228346 -0.0127677,-0.000137795 -0.0827362,-0.00170866 -0.164835,-0.00264173 -0.246303,-0.00282283 -0.0837323,-0.000181102 -0.167772,0.000413386 -0.252106,0.00175197l3.93701e-006 0.000181102c-0.0355315,0.000562992 -0.0649331,-0.0213228 -0.0656496,-0.0488858 -3.54331e-005,-0.00130315 -1.1811e-005,-0.00259055 7.87402e-005,-0.00386614 -0.00138189,-0.0397362 -0.00266535,-0.0808858 -0.00391732,-0.121539l-0.00240551 -0.076374 -0.000232283 3.93701e-006c-0.000893701,-0.027563 0.0271732,-0.0504724 0.0627008,-0.0511693 0.00193307,-3.54331e-005 0.00384646,-7.87402e-006 0.00573622,9.05512e-005zm0.989626 -0.345787c0.0753307,0.00719685 0.153102,0.0152874 0.23335,0.024252 0.0767165,0.0085748 0.155256,0.0180157 0.235634,0.0282913l0.000149606 -0.000106299c0.0269409,0.00344488 0.0468661,0.0200079 0.0507244,0.039878l0.0266969 0.0966772 0.0282244 0.101524 5.51181e-005 -1.1811e-005c0.00715748,0.0257047 -0.0139055,0.0510472 -0.0470354,0.0565945 -0.00910236,0.00152756 -0.0181772,0.00140157 -0.0266929,-0.000122047 -0.0780118,-0.0104449 -0.157268,-0.020437 -0.237906,-0.0299331 -0.086311,-0.0101654 -0.166614,-0.0190039 -0.240701,-0.0264449l-0.000216535 0.000161417c-0.0296024,-0.00297638 -0.0515157,-0.0218504 -0.0533701,-0.044122 -0.00728346,-0.0363504 -0.0145827,-0.0723228 -0.0217835,-0.107858l-0.0170669 -0.0844173 -0.00023622 2.3622e-005c-0.00522047,-0.0259803 0.017689,-0.0503346 0.0511772,-0.0543858 0.00646457,-0.000779528 0.0128583,-0.000748031 0.0189961,0zm-1.54978 0.00977953l0 0zm-0.467465 0.333701l0 0zm0.234374 -0.309213c0.0790827,-0.00897638 0.156799,-0.0171378 0.233087,-0.0245079 0.0352677,-0.00339764 0.0674134,0.0160236 0.0717913,0.0433819 0.000677165,0.00423622 0.000653543,0.00841732 -1.1811e-005,0.0124646 -0.00235827,0.0368504 -0.0046378,0.0740669 -0.00693307,0.11178l-0.0038937 0.0635906 0.000173228 5.90551e-005c-0.00161024,0.0260669 -0.0287362,0.0464961 -0.0617244,0.0474843 -0.0719173,0.00715748 -0.149449,0.0156024 -0.232736,0.0253583 -0.0782953,0.00917323 -0.156374,0.0190354 -0.234122,0.0296339 -0.035,0.00475591 -0.0683504,-0.0133976 -0.0744803,-0.0405551 -0.00134252,-0.00594094 -0.00127559,-0.0118268 2.3622e-005,-0.0174331 0.00539764,-0.038811 0.010811,-0.0771339 0.0161417,-0.114965l0.00904331 -0.0642087 -0.000122047 -0.00015748c0.00335827,-0.0238543 0.0278701,-0.0419409 0.0574646,-0.044248 0.0768701,-0.0100551 0.152311,-0.0192795 0.226299,-0.0276772zm-0.27848 0.403811c0.0802441,-0.0112047 0.160642,-0.0216339 0.241114,-0.0313031 0.0833268,-0.0100197 0.165693,-0.0191378 0.247098,-0.0273858l-2.75591e-005 -0.000165354c0.0352441,-0.0035748 0.0675433,0.015689 0.0721457,0.0430276 0.000732283,0.00435039 0.000720472,0.00864567 3.93701e-005,0.0128031 -0.00279921,0.043252 -0.00551181,0.0871063 -0.00823622,0.131591l-0.00421654 0.0681299 0.000177165 4.72441e-005c-0.00159055,0.025874 -0.0283189,0.0462008 -0.0609882,0.0474685 -0.0825472,0.00857087 -0.165232,0.0179488 -0.247992,0.0281496 -0.0834606,0.0102795 -0.167047,0.0214055 -0.250665,0.0333858l3.54331e-005 0.000161417c-0.0349409,0.00500787 -0.0685157,-0.0129134 -0.0749685,-0.0400236 -0.00144488,-0.00606299 -0.00140945,-0.0120748 -9.05512e-005,-0.017815 0.00752756,-0.0544606 0.0150591,-0.108142 0.0224488,-0.160906l0.00598425 -0.0427047 -0.000122047 -0.000125984c0.00337008,-0.0240827 0.0282953,-0.0422913 0.0582638,-0.0443346z"/>
    <path id="_525647600" class="fil4" d="M1.05357 4.44047c0.827752,-0.154256 1.63394,-0.227453 2.42013,-0.22548 0.78985,0.00198819 1.55781,0.0796063 2.30557,0.226898l-0.0204173 0.104583 0.0206142 -0.104657c0.0514764,0.0101378 0.0869528,0.0557362 0.0860551,0.106425l0 0.946295c0,0.0589094 -0.0477598,0.106669 -0.106669,0.106669l-4.69333 0c-0.0589094,0 -0.106669,-0.0477598 -0.106669,-0.106669l0 -0.948063c0,-0.0548701 0.0414331,-0.100059 0.0947205,-0.106z"/>
   </g>
   <path id="_525647528" class="fil5" d="M5.86553 5.12583l0 0.368701c0,0.0589094 -0.0477598,0.106669 -0.106669,0.106669l-4.69333 0c-0.0589094,0 -0.106669,-0.0477598 -0.106669,-0.106669l0 -0.368701 4.90667 0z"/>
   <polygon id="_525647072" class="fil6" points="5.86553,5.12583 5.86553,5.21333 0.958854,5.21333 0.958854,5.12583 "/>
   <g>
    <polygon id="_525647504" class="fil7" points="2.23256,3.3253 2.20849,3.35817 2.21602,3.35722 2.22357,3.35626 2.23113,3.3553 2.23871,3.35435 2.2463,3.3534 2.2539,3.35246 2.26152,3.35151 2.26914,3.35057 2.27678,3.34963 2.28443,3.3487 2.29209,3.34776 2.29977,3.34683 2.30746,3.3459 2.31517,3.34497 2.32288,3.34405 2.33061,3.34313 2.33835,3.34221 2.3461,3.3413 2.35387,3.34039 2.36164,3.33947 2.36943,3.33856 2.37723,3.33766 2.38505,3.33676 2.39287,3.33585 2.40071,3.33496 2.40856,3.33406 2.41642,3.33317 2.4243,3.33228 2.43219,3.33139 2.44008,3.3305 2.44799,3.32962 2.45591,3.32874 2.45347,3.29902 2.44639,3.2998 2.43933,3.30059 2.43228,3.30138 2.42524,3.30217 2.41821,3.30297 2.41119,3.30377 2.40418,3.30457 2.39719,3.30537 2.3902,3.30617 2.38322,3.30698 2.37626,3.30779 2.3693,3.3086 2.36236,3.30941 2.35543,3.31023 2.3485,3.31105 2.34159,3.31187 2.33469,3.31269 2.3278,3.31351 2.32093,3.31434 2.31406,3.31517 2.3072,3.316 2.30036,3.31683 2.29353,3.31767 2.28671,3.31851 2.2799,3.31935 2.2731,3.32019 2.26631,3.32104 2.25954,3.32188 2.25278,3.32273 2.24602,3.32359 2.23928,3.32444 "/>
    <polygon id="_525647384" class="fil7" points="2.45347,3.29902 2.45591,3.32874 2.46341,3.32791 2.47093,3.32708 2.47846,3.32626 2.48602,3.32543 2.49359,3.32461 2.50118,3.32379 2.50878,3.32298 2.51641,3.32216 2.52406,3.32135 2.53171,3.32054 2.53939,3.31973 2.54709,3.31892 2.5548,3.31812 2.56253,3.31731 2.57028,3.31652 2.57805,3.31572 2.58583,3.31492 2.59363,3.31413 2.60145,3.31333 2.60928,3.31255 2.61714,3.31176 2.62501,3.31097 2.6329,3.31019 2.6408,3.30941 2.64872,3.30863 2.65666,3.30785 2.66461,3.30708 2.67259,3.30631 2.68057,3.30554 2.68858,3.30477 2.6966,3.304 2.70464,3.30324 2.67555,3.27625 2.66837,3.27693 2.66121,3.27761 2.65406,3.2783 2.64693,3.27899 2.63981,3.27968 2.63271,3.28037 2.62562,3.28106 2.61855,3.28176 2.61149,3.28246 2.60445,3.28315 2.59742,3.28385 2.59041,3.28456 2.58341,3.28526 2.57643,3.28597 2.56947,3.28668 2.56252,3.28739 2.55559,3.2881 2.54867,3.28881 2.54176,3.28953 2.53488,3.29025 2.528,3.29097 2.52115,3.29169 2.51431,3.29242 2.50748,3.29314 2.50068,3.29387 2.49389,3.2946 2.48711,3.29533 2.48035,3.29606 2.4736,3.2968 2.46688,3.29754 2.46017,3.29828 "/>
    <polygon id="_525646304" class="fil7" points="2.67555,3.27625 2.70464,3.30324 2.71118,3.30255 2.71752,3.30141 2.72365,3.29985 2.72954,3.29788 2.73513,3.29553 2.74043,3.29281 2.74539,3.28975 2.74998,3.28637 2.75419,3.28268 2.75797,3.27872 2.76129,3.27449 2.76414,3.27002 2.76647,3.26533 2.76826,3.26044 2.76948,3.25538 2.77011,3.25015 2.734,3.22885 2.73344,3.23352 2.73235,3.23804 2.73075,3.2424 2.72867,3.24659 2.72613,3.25058 2.72316,3.25435 2.71979,3.25789 2.71604,3.26119 2.71193,3.2642 2.7075,3.26694 2.70278,3.26936 2.69778,3.27146 2.69252,3.27322 2.68705,3.27461 2.68139,3.27563 "/>
    <polygon id="_525646208" class="fil7" points="2.734,3.22885 2.77011,3.25015 2.76991,3.24996 2.73382,3.22868 "/>
    <polygon id="_525646640" class="fil7" points="2.73382,3.22868 2.76991,3.24996 2.77028,3.2438 2.77066,3.23754 2.77105,3.23118 2.77144,3.22474 2.77184,3.21822 2.77225,3.21162 2.77267,3.20496 2.77309,3.19824 2.77352,3.19147 2.77394,3.18465 2.77438,3.1778 2.77481,3.17092 2.77525,3.16401 2.77569,3.15708 2.77614,3.15015 2.77658,3.14322 2.73978,3.13337 2.73939,3.13956 2.73899,3.14575 2.73859,3.15194 2.7382,3.1581 2.73781,3.16425 2.73743,3.17037 2.73704,3.17645 2.73666,3.1825 2.73629,3.1885 2.73591,3.19444 2.73555,3.20033 2.73519,3.20616 2.73484,3.21191 2.73449,3.21758 2.73415,3.22318 "/>
    <polygon id="_525646592" class="fil7" points="2.73978,3.13337 2.77658,3.14322 2.78083,3.07594 2.74358,3.0733 "/>
    <polygon id="_525645608" class="fil7" points="2.74358,3.0733 2.78083,3.07594 2.78107,3.07428 2.78124,3.07261 2.78135,3.07094 2.78139,3.06925 2.78136,3.06755 2.78128,3.06584 2.78112,3.06412 2.78089,3.0624 2.74363,3.06122 2.74383,3.06275 2.74397,3.06428 2.74405,3.06581 2.74407,3.06733 2.74404,3.06883 2.74394,3.07033 2.74379,3.07182 "/>
    <polygon id="_525645896" class="fil7" points="2.67217,3.01756 2.70085,3.0135 2.69348,3.01418 2.6861,3.01487 2.6787,3.01555 2.67127,3.01625 2.66383,3.01695 2.65637,3.01766 2.64889,3.01837 2.6414,3.01909 2.63389,3.01981 2.62635,3.02054 2.6188,3.02128 2.61122,3.02202 2.60363,3.02276 2.59603,3.02352 2.5884,3.02428 2.58075,3.02504 2.57308,3.02581 2.5654,3.02658 2.5577,3.02737 2.54998,3.02815 2.54224,3.02894 2.53448,3.02974 2.5267,3.03054 2.51891,3.03135 2.51109,3.03217 2.50326,3.03299 2.49541,3.03381 2.48754,3.03465 2.47965,3.03548 2.47174,3.03633 2.46382,3.03718 2.45587,3.03803 2.45344,3.03946 2.46053,3.03869 2.46761,3.03794 2.47467,3.03718 2.48171,3.03643 2.48874,3.03569 2.49574,3.03495 2.50274,3.03422 2.50972,3.03349 2.51668,3.03277 2.52362,3.03206 2.53055,3.03134 2.53746,3.03063 2.54435,3.02993 2.55123,3.02923 2.55809,3.02854 2.56493,3.02785 2.57176,3.02717 2.57857,3.0265 2.58536,3.02582 2.59214,3.02516 2.5989,3.0245 2.60565,3.02384 2.61237,3.02319 2.61908,3.02254 2.62578,3.0219 2.63245,3.02126 2.63911,3.02063 2.64576,3.02001 2.65239,3.01939 2.659,3.01877 2.66559,3.01816 "/>
    <polygon id="_525645872" class="fil7" points="2.74363,3.06122 2.78089,3.0624 2.77965,3.05676 2.77772,3.05135 2.77515,3.04619 2.77197,3.04131 2.76821,3.03673 2.76393,3.03248 2.75916,3.02859 2.75393,3.02507 2.74831,3.02195 2.7423,3.01926 2.73598,3.01702 2.72937,3.01526 2.72251,3.01399 2.71544,3.01326 2.7082,3.01307 2.70084,3.01345 2.67215,3.01751 2.67873,3.01717 2.68519,3.01733 2.6915,3.01799 2.69763,3.01912 2.70353,3.0207 2.70918,3.0227 2.71454,3.0251 2.71956,3.02788 2.72422,3.03102 2.72848,3.0345 2.73231,3.0383 2.73566,3.04238 2.7385,3.04674 2.7408,3.05135 2.74252,3.05618 "/>
    <polygon id="_525646040" class="fil7" points="2.45344,3.03946 2.45587,3.03803 2.44861,3.03882 2.44133,3.03961 2.43404,3.0404 2.42673,3.0412 2.41942,3.04201 2.41209,3.04281 2.40475,3.04363 2.39739,3.04445 2.39002,3.04528 2.38265,3.04611 2.37526,3.04695 2.36785,3.04779 2.36043,3.04864 2.353,3.04949 2.34556,3.05034 2.33811,3.0512 2.33064,3.05207 2.32316,3.05294 2.31567,3.05382 2.30817,3.0547 2.30065,3.05559 2.29312,3.05648 2.28558,3.05738 2.27802,3.05828 2.27045,3.05919 2.26287,3.0601 2.25529,3.06102 2.24768,3.06194 2.24006,3.06287 2.23244,3.0638 2.2248,3.06474 2.21714,3.06569 2.24028,3.06415 2.24711,3.0633 2.25394,3.06246 2.26075,3.06163 2.26755,3.06081 2.27434,3.05998 2.28111,3.05916 2.28788,3.05835 2.29464,3.05754 2.30139,3.05673 2.30812,3.05593 2.31484,3.05513 2.32155,3.05434 2.32825,3.05356 2.33494,3.05277 2.34162,3.05199 2.34829,3.05122 2.35494,3.05045 2.36159,3.04969 2.36822,3.04893 2.37484,3.04817 2.38146,3.04742 2.38806,3.04667 2.39464,3.04593 2.40122,3.04519 2.40779,3.04446 2.41434,3.04373 2.42089,3.04301 2.42742,3.04229 2.43394,3.04157 2.44045,3.04086 2.44695,3.04016 "/>
    <polygon id="_525645728" class="fil7" points="2.24028,3.06415 2.21714,3.06569 2.21084,3.06627 2.20471,3.06726 2.19876,3.06866 2.19302,3.07044 2.18752,3.07259 2.18229,3.07508 2.17736,3.0779 2.17275,3.08104 2.1685,3.08447 2.16462,3.08818 2.16116,3.09215 2.15813,3.09636 2.15556,3.1008 2.15348,3.10545 2.15193,3.1103 2.15092,3.11531 2.18116,3.10846 2.18206,3.10398 2.18344,3.09965 2.1853,3.0955 2.18759,3.09154 2.1903,3.08778 2.19339,3.08423 2.19685,3.08092 2.20065,3.07785 2.20476,3.07506 2.20917,3.07254 2.21383,3.07031 2.21874,3.06839 2.22387,3.0668 2.22918,3.06556 2.23466,3.06467 "/>
    <polygon id="_525645080" class="fil7" points="2.18116,3.10846 2.15092,3.11531 2.15105,3.11533 2.18127,3.10847 "/>
    <polygon id="_525645248" class="fil7" points="2.18127,3.10847 2.15105,3.11533 2.13976,3.19533 2.17119,3.17991 "/>
    <polygon id="_525644960" class="fil7" points="2.17119,3.17991 2.13976,3.19533 2.12582,3.29356 2.15874,3.26761 "/>
    <polygon id="_525644792" class="fil7" points="2.15874,3.26761 2.12582,3.29356 2.12537,3.29583 2.12504,3.29812 2.12484,3.30043 2.12476,3.30276 2.1248,3.3051 2.12497,3.30747 2.12528,3.30984 2.12572,3.31222 2.15865,3.28427 2.15826,3.28214 2.15799,3.28002 2.15783,3.27791 2.1578,3.27582 2.15787,3.27374 2.15805,3.27168 2.15835,3.26963 "/>
    <polygon id="_525652424" class="fil7" points="2.15865,3.28427 2.12572,3.31222 2.12728,3.31781 2.12952,3.32315 2.13239,3.32822 2.13585,3.33298 2.13987,3.33742 2.1444,3.34151 2.14939,3.34524 2.15481,3.34857 2.16062,3.35149 2.16677,3.35396 2.17322,3.35598 2.17993,3.35751 2.18685,3.35853 2.19395,3.35902 2.20119,3.35896 2.20852,3.35832 2.23259,3.32543 2.22604,3.326 2.21958,3.32606 2.21324,3.32562 2.20705,3.3247 2.20106,3.32334 2.1953,3.32154 2.18981,3.31933 2.18463,3.31672 2.17979,3.31375 2.17533,3.31042 2.17129,3.30677 2.1677,3.3028 2.16461,3.29855 2.16204,3.29403 2.16005,3.28926 "/>
   </g>
   <path id="_525652688" class="fil8" d="M2.23256 3.3253c0.0717126,-0.00914567 0.145413,-0.0179055 0.220913,-0.0262795 0.0713346,-0.00790945 0.145441,-0.0155039 0.222079,-0.0227677 0.0315394,-0.00219685 0.0569449,-0.0221732 0.0584567,-0.0473976l-0.000181102 -0.000173228c0.00173622,-0.0290906 0.00385039,-0.0622835 0.00595669,-0.0953071l0.00379921 -0.0600669c0.000625984,-0.00392913 0.000673228,-0.00798031 4.72441e-005,-0.0120866 -0.00417323,-0.027374 -0.0361772,-0.0469488 -0.0714724,-0.0437087l1.1811e-005 4.72441e-005c-0.070063,0.00642913 -0.142984,0.0137362 -0.218728,0.0219016 -0.0691417,0.00744882 -0.140205,0.015685 -0.213157,0.024689 -0.0303071,0.00175197 -0.0556693,0.0200315 -0.059122,0.044311l0.000114173 1.5748e-005 -0.0100827 0.0714331 -0.0124449 0.0877008c-0.00120472,0.00537008 -0.00129528,0.0109803 -9.05512e-005,0.0166614 0.00575591,0.0272008 0.0388701,0.045626 0.0739331,0.0411575l-3.14961e-005 -0.000129921z"/>
   <path id="_525652568" class="fil8" d="M2.38079 3.74211c-0.0804724,0.00966929 -0.16087,0.0200984 -0.241114,0.0313031 -0.0299685,0.00204331 -0.0548937,0.020252 -0.0582638,0.0443346l0.000122047 0.000125984 -0.00598425 0.0427047c-0.00738976,0.0527638 -0.0149213,0.106445 -0.0224488,0.160906 -0.0013189,0.00574016 -0.00135433,0.011752 9.05512e-005,0.017815 0.00645276,0.0271102 0.0400276,0.0450315 0.0749685,0.0400236l-3.54331e-005 -0.000161417c0.0836181,-0.0119803 0.167205,-0.0231063 0.250665,-0.0333858 0.0827598,-0.0102008 0.165445,-0.0195787 0.247992,-0.0281496 0.0326693,-0.00126772 0.0593976,-0.0215945 0.0609882,-0.0474685l-0.000177165 -4.72441e-005 0.00421654 -0.0681299c0.00272441,-0.0444843 0.00543701,-0.0883386 0.00823622,-0.131591 0.000681102,-0.00415748 0.000692913,-0.00845276 -3.93701e-005,-0.0128031 -0.00460236,-0.0273386 -0.0369016,-0.0466024 -0.0721457,-0.0430276l2.75591e-005 0.000165354c-0.0814055,0.00824803 -0.163772,0.0173661 -0.247098,0.0273858z"/>
   <g>
    <polygon id="_525651656" class="fil7" points="3.19208,3.24731 3.17003,3.27404 3.17774,3.2739 3.18543,3.27376 3.19313,3.27363 3.20083,3.2735 3.20853,3.27337 3.21621,3.27325 3.2239,3.27313 3.23158,3.27301 3.23926,3.2729 3.24693,3.27279 3.2546,3.27268 3.26227,3.27258 3.26993,3.27248 3.27759,3.27239 3.28524,3.2723 3.29289,3.2722 3.30054,3.27212 3.30819,3.27204 3.31582,3.27196 3.32346,3.27189 3.33109,3.27182 3.33872,3.27176 3.34634,3.27169 3.35396,3.27164 3.36158,3.27158 3.36919,3.27153 3.3768,3.27148 3.3844,3.27144 3.392,3.2714 3.39959,3.27137 3.40719,3.27134 3.41477,3.27131 3.41457,3.24483 3.40768,3.24485 3.40078,3.24488 3.39387,3.24491 3.38696,3.24494 3.38005,3.24498 3.37313,3.24503 3.36622,3.24507 3.35929,3.24512 3.35237,3.24517 3.34544,3.24523 3.3385,3.24529 3.33156,3.24535 3.32462,3.24542 3.31768,3.24549 3.31073,3.24556 3.30378,3.24564 3.29682,3.24572 3.28986,3.2458 3.2829,3.24589 3.27593,3.24598 3.26896,3.24607 3.26199,3.24617 3.25502,3.24627 3.24804,3.24637 3.24106,3.24648 3.23407,3.24659 3.22708,3.2467 3.22008,3.24681 3.21309,3.24693 3.20609,3.24706 3.19909,3.24718 "/>
    <polygon id="_525651944" class="fil7" points="3.1262,3.19879 3.09756,3.22067 3.0981,3.22627 3.09933,3.2317 3.10124,3.23693 3.10378,3.24193 3.10691,3.24667 3.11059,3.25113 3.1148,3.25528 3.11949,3.2591 3.12463,3.26255 3.13017,3.26561 3.13609,3.26825 3.14235,3.27044 3.14891,3.27217 3.15574,3.27339 3.16278,3.27409 3.17003,3.27424 3.19208,3.24749 3.1855,3.24736 3.17909,3.24672 3.17288,3.24561 3.16692,3.24404 3.16123,3.24204 3.15585,3.23964 3.15081,3.23686 3.14614,3.23372 3.14187,3.23026 3.13805,3.22648 3.1347,3.22243 3.13185,3.21812 3.12955,3.21357 3.12781,3.20882 3.12669,3.20388 "/>
    <polygon id="_525652112" class="fil7" points="3.41457,3.24483 3.41477,3.27131 3.4222,3.27129 3.42962,3.27127 3.43706,3.27126 3.44448,3.27124 3.45192,3.27123 3.45936,3.27123 3.46679,3.27123 3.47423,3.27123 3.48167,3.27124 3.48911,3.27125 3.49656,3.27126 3.504,3.27128 3.51145,3.2713 3.5189,3.27133 3.52635,3.27136 3.5338,3.27139 3.54125,3.27143 3.5487,3.27147 3.55616,3.27151 3.56362,3.27156 3.57107,3.27161 3.57854,3.27167 3.586,3.27173 3.59346,3.27179 3.60093,3.27186 3.60839,3.27193 3.61586,3.272 3.62333,3.27208 3.6308,3.27216 3.63827,3.27225 3.64574,3.27234 3.65322,3.27243 3.63135,3.24585 3.62455,3.24576 3.61776,3.24568 3.61096,3.2456 3.60417,3.24552 3.59739,3.24545 3.59059,3.24539 3.58381,3.24532 3.57702,3.24526 3.57024,3.2452 3.56346,3.24515 3.55667,3.2451 3.54989,3.24505 3.54311,3.24501 3.53633,3.24497 3.52956,3.24493 3.52278,3.2449 3.51601,3.24487 3.50924,3.24484 3.50246,3.24482 3.4957,3.2448 3.48893,3.24478 3.48216,3.24477 3.4754,3.24476 3.46863,3.24476 3.46187,3.24475 3.45511,3.24475 3.44835,3.24476 3.44159,3.24476 3.43483,3.24478 3.42808,3.24479 3.42133,3.24481 "/>
    <polygon id="_525651584" class="fil7" points="3.63135,3.24585 3.65322,3.27243 3.65487,3.27256 3.65655,3.27265 3.65822,3.2727 3.65991,3.27273 3.6616,3.27273 3.6633,3.27269 3.66501,3.27263 3.66672,3.27253 3.64363,3.24593 3.64207,3.24602 3.64052,3.24608 3.63897,3.24611 3.63743,3.24612 3.6359,3.24609 3.63437,3.24604 3.63285,3.24596 "/>
    <polygon id="_525652040" class="fil7" points="3.64363,3.24593 3.66672,3.27253 3.67391,3.27177 3.68081,3.27047 3.68743,3.26867 3.6937,3.2664 3.69961,3.26368 3.70512,3.26056 3.7102,3.25704 3.71482,3.25317 3.71894,3.24899 3.72253,3.2445 3.72556,3.23976 3.728,3.23477 3.72981,3.22959 3.73097,3.22423 3.73143,3.21872 3.73118,3.21311 3.70222,3.19191 3.70245,3.19702 3.70203,3.20202 3.70098,3.2069 3.69933,3.21161 3.69711,3.21614 3.69436,3.22046 3.69109,3.22453 3.68735,3.22834 3.68315,3.23185 3.67853,3.23505 3.67352,3.23789 3.66815,3.24036 3.66244,3.24243 3.65644,3.24406 3.65015,3.24524 "/>
    <polygon id="_525650792" class="fil7" points="3.70222,3.19191 3.73118,3.21311 3.72505,3.1582 3.69665,3.142 "/>
    <polygon id="_525651344" class="fil7" points="3.69665,3.142 3.72505,3.1582 3.72489,3.15652 3.69651,3.14047 "/>
    <polygon id="_525650912" class="fil7" points="3.69651,3.14047 3.72489,3.15652 3.71202,3.04031 3.6848,3.03483 "/>
    <polygon id="_525651296" class="fil7" points="3.6848,3.03483 3.71202,3.04031 3.71133,3.03503 3.71002,3.02989 3.70811,3.02494 3.70562,3.0202 3.70259,3.01568 3.69906,3.01142 3.69505,3.00744 3.69059,3.00376 3.68572,3.00042 3.68046,2.99743 3.67485,2.99481 3.6689,2.99259 3.66267,2.99081 3.65617,2.98948 3.64945,2.98863 3.64252,2.98828 3.62162,2.98753 3.62792,2.98785 3.63404,2.98862 3.63994,2.98983 3.64561,2.99145 3.65101,2.99346 3.65611,2.99584 3.66089,2.99856 3.66533,3.0016 3.66938,3.00494 3.67302,3.00856 3.67624,3.01243 3.67898,3.01654 3.68124,3.02085 3.68298,3.02535 3.68418,3.03002 "/>
    <polygon id="_525650456" class="fil7" points="3.18413,2.98932 3.16128,2.99026 3.15406,2.99068 3.14705,2.99164 3.14031,2.99311 3.13387,2.99509 3.12776,2.99751 3.12201,3.00037 3.11665,3.00363 3.11174,3.00727 3.10729,3.01125 3.10335,3.01556 3.09994,3.02015 3.09711,3.025 3.09489,3.03009 3.0933,3.03538 3.0924,3.04085 3.09221,3.04647 3.12133,3.04043 3.12151,3.03532 3.12233,3.03035 3.12377,3.02554 3.12579,3.02091 3.12837,3.0165 3.13146,3.01232 3.13505,3.00841 3.13909,3.00479 3.14356,3.00148 3.14843,2.99852 3.15365,2.99592 3.15921,2.99371 3.16507,2.99192 3.17119,2.99058 3.17756,2.9897 "/>
    <polygon id="_525650192" class="fil7" points="3.12133,3.04043 3.09221,3.04647 3.09246,3.04647 3.12157,3.04043 "/>
    <polygon id="_525650312" class="fil7" points="3.12157,3.04043 3.09246,3.04647 3.09514,3.13288 3.124,3.11898 "/>
    <polygon id="_525650624" class="fil7" points="3.124,3.11898 3.09514,3.13288 3.09768,3.21597 3.12631,3.19452 "/>
    <polygon id="_525650288" class="fil7" points="3.12631,3.19452 3.09768,3.21597 3.09763,3.21656 3.0976,3.21714 3.09757,3.21772 3.09755,3.21831 3.09754,3.2189 3.09754,3.21948 3.09754,3.22007 3.09756,3.22067 3.1262,3.19879 3.12619,3.19825 3.12618,3.19771 3.12618,3.19718 3.12619,3.19664 3.12621,3.19611 3.12624,3.19558 3.12627,3.19505 "/>
   </g>
   <path id="_515900784" class="fil8" d="M3.1262 3.19879c0.000854331,0.0275591 0.0303583,0.0493701 0.0658858,0.0487047l-3.93701e-006 -0.000181102c0.074752,-0.00138976 0.148945,-0.00224016 0.222496,-0.00248425 0.0720118,-0.00023622 0.144287,8.66142e-005 0.216772,0.00101969 0.00401575,0.000330709 0.00811417,0.000362205 0.0122795,8.66142e-005 0.0354094,-0.0023622 0.0616417,-0.0265472 0.0585945,-0.0540197l-0.0055748 -0.0499134 -0.000137795 -0.0015315 -0.0117087 -0.105638c-0.00172441,-0.0259843 -0.0291457,-0.0468622 -0.0631772,-0.0473031l-7.48031e-005 0.000185039c-0.0720354,-0.000937008 -0.144303,-0.00123622 -0.216693,-0.000944882 -0.0725039,0.00030315 -0.144327,0.00119291 -0.215429,0.00262992 -0.00175591,-8.26772e-005 -0.00351181,-0.000106299 -0.00529921,-7.48031e-005 -0.0355236,0.000661417 -0.0636378,0.0235472 -0.0627913,0.0511063l0.000232283 -3.93701e-006 0.00243307 0.0785551 0.00230709 0.0755354c-0.000114173,0.00141339 -0.000153543,0.00283465 -0.000110236,0.00427165z"/>
   <path id="_515891328" class="fil8" d="M3.65804 3.31357c-0.152933,-0.00217717 -0.305744,-0.00180709 -0.458433,0.000992126 -0.00183071,-8.26772e-005 -0.0036811,-0.000110236 -0.00554331,-7.48031e-005 -0.0355276,0.000688976 -0.0636102,0.0235906 -0.0627205,0.0511535l0.00023622 -3.93701e-006 0.00283465 0.088063 0.00270079 0.0857992c-9.84252e-005,0.00140551 -0.000141732,0.00282283 -9.84252e-005,0.00425197 0.000858268,0.0275591 0.0303661,0.0493661 0.0658937,0.0486969l-3.93701e-006 -0.000181102c0.0794567,-0.00149606 0.158445,-0.00229528 0.23687,-0.00237795 0.0763661,-7.08661e-005 0.15315,0.000515748 0.230248,0.00178346 0.00408661,0.00034252 0.00827953,0.000389764 0.0125236,0.000110236 0.0354094,-0.0023622 0.0616457,-0.0265551 0.0585945,-0.0540197l-0.0100472 -0.0896496 -0.00981102 -0.0874724c-0.00174803,-0.025937 -0.0290827,-0.0467717 -0.0630709,-0.0472559l-0.000173228 0.000185039z"/>
   <path id="_515882856" class="fil8" d="M3.45129 3.67924c-0.0803346,-6.29921e-005 -0.160339,0.000559055 -0.239886,0.00188189 -0.00188976,-9.84252e-005 -0.00380315,-0.000125984 -0.00573622,-9.05512e-005 -0.0355276,0.00069685 -0.0635945,0.0236063 -0.0627008,0.0511693l0.000232283 -3.93701e-006 0.00240551 0.076374c0.00125197,0.0406535 0.00253543,0.0818031 0.00391732,0.121539 -9.05512e-005,0.00127559 -0.000114173,0.00256299 -7.87402e-005,0.00386614 0.000716535,0.027563 0.0301181,0.0494488 0.0656496,0.0488858l-3.93701e-006 -0.000181102c0.0843346,-0.00133858 0.168374,-0.00193307 0.252106,-0.00175197 0.0814685,0.000181102 0.163567,0.00111417 0.246303,0.00282283 0.00416535,0.000366142 0.00843307,0.000425197 0.0127677,0.000137795 0.0354055,-0.00233858 0.0616772,-0.0265039 0.0586614,-0.0539724 -0.0040748,-0.0369016 -0.0114724,-0.102354 -0.0224724,-0.198504 6.69291e-005,-0.0270709 -0.0277756,-0.0493504 -0.0628346,-0.0499882l-3.93701e-006 0.000181102c-0.0821772,-0.00149606 -0.164976,-0.00229528 -0.248327,-0.00236614z"/>
   <g>
    <polygon id="_515882160" class="fil7" points="4.15265,3.27059 4.13122,3.29601 4.13838,3.29659 4.14557,3.29719 4.1528,3.29778 4.16006,3.29839 4.16735,3.299 4.17467,3.29961 4.18202,3.30024 4.18941,3.30087 4.19683,3.30151 4.20428,3.30215 4.21176,3.30281 4.21927,3.30346 4.22681,3.30413 4.23439,3.3048 4.242,3.30547 4.24964,3.30616 4.25731,3.30685 4.26501,3.30754 4.27274,3.30824 4.28051,3.30896 4.28831,3.30967 4.29613,3.31039 4.30399,3.31113 4.31188,3.31186 4.3198,3.3126 4.32774,3.31335 4.33573,3.3141 4.34374,3.31486 4.35178,3.31563 4.35985,3.3164 4.36796,3.31718 4.37609,3.31796 4.37526,3.29055 4.36786,3.28984 4.3605,3.28913 4.35316,3.28843 4.34585,3.28773 4.33856,3.28704 4.33131,3.28635 4.32408,3.28567 4.31688,3.285 4.30971,3.28433 4.30257,3.28367 4.29545,3.28302 4.28837,3.28236 4.28131,3.28172 4.27428,3.28108 4.26728,3.28044 4.2603,3.27982 4.25336,3.2792 4.24644,3.27858 4.23955,3.27797 4.23269,3.27737 4.22586,3.27677 4.21906,3.27618 4.21229,3.27559 4.20555,3.27501 4.19883,3.27444 4.19215,3.27387 4.18549,3.27331 4.17886,3.27276 4.17227,3.2722 4.1657,3.27166 4.15916,3.27113 "/>
    <polygon id="_515881992" class="fil7" points="4.37526,3.29055 4.37609,3.31796 4.38391,3.31872 4.3917,3.31948 4.39948,3.32024 4.40724,3.321 4.41498,3.32177 4.4227,3.32253 4.4304,3.3233 4.43808,3.32407 4.44575,3.32483 4.4534,3.3256 4.46102,3.32638 4.46863,3.32715 4.47622,3.32793 4.4838,3.3287 4.49135,3.32948 4.49889,3.33026 4.50641,3.33104 4.51391,3.33182 4.52139,3.3326 4.52885,3.33339 4.5363,3.33417 4.54373,3.33496 4.55114,3.33575 4.55852,3.33654 4.5659,3.33733 4.57326,3.33812 4.5806,3.33892 4.58792,3.33971 4.59522,3.34051 4.60251,3.34131 4.60978,3.34211 4.61703,3.34291 4.59429,3.31323 4.5877,3.3125 4.58109,3.31177 4.57447,3.31105 4.56783,3.31032 4.56117,3.3096 4.5545,3.30888 4.54781,3.30816 4.54111,3.30744 4.53439,3.30672 4.52765,3.306 4.5209,3.30529 4.51413,3.30457 4.50735,3.30386 4.50054,3.30315 4.49372,3.30244 4.48689,3.30173 4.48004,3.30102 4.47317,3.30031 4.46629,3.29961 4.45939,3.2989 4.45247,3.2982 4.44554,3.2975 4.43858,3.2968 4.43161,3.2961 4.42463,3.2954 4.41763,3.2947 4.41061,3.29401 4.40357,3.29331 4.39652,3.29262 4.38945,3.29193 4.38236,3.29124 "/>
    <polygon id="_515882040" class="fil7" points="4.59429,3.31323 4.61703,3.34291 4.62059,3.34341 4.62419,3.34376 4.62784,3.34398 4.63152,3.34404 4.63522,3.34396 4.63894,3.34372 4.64269,3.34332 4.64644,3.34277 4.62103,3.3131 4.61762,3.31361 4.61422,3.31396 4.61083,3.31418 4.60746,3.31426 4.60412,3.3142 4.6008,3.314 4.59753,3.31368 "/>
    <polygon id="_515881728" class="fil7" points="4.67011,3.2537 4.70043,3.27743 4.6982,3.26947 4.69606,3.26189 4.69403,3.25465 4.6921,3.24776 4.69025,3.24119 4.6885,3.23493 4.68683,3.22898 4.68524,3.2233 4.68373,3.21791 4.68229,3.21277 4.68093,3.20788 4.67963,3.20322 4.67839,3.19878 4.67721,3.19455 4.67609,3.19051 4.67501,3.18665 4.647,3.17117 4.64798,3.17468 4.649,3.17835 4.65007,3.1822 4.6512,3.18624 4.65238,3.19047 4.65362,3.19492 4.65493,3.19959 4.6563,3.2045 4.65774,3.20965 4.65926,3.21507 4.66086,3.22076 4.66254,3.22673 4.6643,3.233 4.66614,3.23957 4.66808,3.24647 "/>
    <polygon id="_515881560" class="fil7" points="4.62103,3.3131 4.64644,3.34277 4.65343,3.3413 4.66007,3.33932 4.66633,3.33688 4.67217,3.334 4.67758,3.33071 4.68253,3.32706 4.68698,3.32307 4.69092,3.31878 4.69431,3.31421 4.69713,3.30941 4.69935,3.3044 4.70094,3.29921 4.70188,3.29389 4.70214,3.28846 4.70169,3.28295 4.7005,3.27741 4.67017,3.25369 4.67125,3.25872 4.67166,3.26373 4.67143,3.26867 4.67057,3.2735 4.66913,3.27822 4.66711,3.28277 4.66455,3.28714 4.66146,3.29129 4.65788,3.29519 4.65383,3.29882 4.64934,3.30214 4.64442,3.30513 4.63911,3.30774 4.63342,3.30996 4.62739,3.31176 "/>
    <polygon id="_515881152" class="fil7" points="4.647,3.17117 4.67501,3.18665 4.6511,3.10028 4.62527,3.09265 "/>
    <polygon id="_515881320" class="fil7" points="4.62527,3.09265 4.6511,3.10028 4.65002,3.09593 4.6485,3.09169 4.64656,3.08757 4.64422,3.08362 4.64148,3.07983 4.63838,3.07622 4.63492,3.07281 4.63112,3.06962 4.627,3.06667 4.62258,3.06397 4.61788,3.06154 4.6129,3.0594 4.60767,3.05756 4.6022,3.05605 4.59652,3.05488 4.57565,3.05138 4.58081,3.05245 4.58578,3.05382 4.59054,3.05549 4.59506,3.05744 4.59934,3.05965 4.60336,3.0621 4.6071,3.06478 4.61056,3.06769 4.6137,3.07078 4.61652,3.07406 4.61901,3.07751 4.62114,3.08111 4.62291,3.08484 4.62429,3.0887 "/>
    <polygon id="_515881680" class="fil7" points="4.1275,3.0102 4.10356,3.00958 4.10059,3.00959 4.09761,3.00971 4.0946,3.00992 4.09159,3.01023 4.11662,3.0108 4.11936,3.01051 4.12209,3.01032 4.1248,3.01022 "/>
    <polygon id="_515880264" class="fil7" points="4.11662,3.0108 4.09159,3.01023 4.0845,3.01137 4.07772,3.01303 4.07128,3.01518 4.06522,3.01778 4.05956,3.0208 4.05434,3.02421 4.04958,3.02798 4.04531,3.03208 4.04157,3.03648 4.03838,3.04114 4.03577,3.04604 4.03377,3.05113 4.03242,3.0564 4.03173,3.06181 4.03175,3.06732 4.0325,3.07291 4.0629,3.06778 4.06222,3.06269 4.0622,3.05768 4.06283,3.05276 4.06406,3.04798 4.06587,3.04334 4.06825,3.03889 4.07115,3.03465 4.07455,3.03066 4.07843,3.02693 4.08276,3.0235 4.0875,3.0204 4.09265,3.01765 4.09816,3.01529 4.10401,3.01334 4.11017,3.01183 "/>
    <polygon id="_515880504" class="fil7" points="4.0629,3.06778 4.0325,3.07291 4.03277,3.07288 4.06315,3.06775 "/>
    <polygon id="_515880456" class="fil7" points="4.06315,3.06775 4.03277,3.07288 4.03444,3.08121 4.03604,3.0892 4.03758,3.09689 4.03907,3.1043 4.04051,3.11144 4.04191,3.11833 4.04326,3.12502 4.04457,3.1315 4.04585,3.13782 4.04711,3.14398 4.04834,3.15002 4.04955,3.15595 4.05074,3.1618 4.05192,3.16759 4.05309,3.17334 4.05427,3.17908 4.08269,3.16429 4.08162,3.15907 4.08056,3.15385 4.07948,3.14859 4.0784,3.14327 4.0773,3.13787 4.07618,3.13239 4.07504,3.12678 4.07388,3.12104 4.07268,3.11515 4.07145,3.10907 4.07019,3.1028 4.06888,3.09631 4.06752,3.08958 4.06612,3.08259 4.06467,3.07532 "/>
    <polygon id="_515880816" class="fil7" points="4.08269,3.16429 4.05427,3.17908 4.06779,3.24525 4.09498,3.22444 "/>
    <polygon id="_515880792" class="fil7" points="4.09498,3.22444 4.06779,3.24525 4.06849,3.2501 4.06973,3.25483 4.07148,3.25942 4.07373,3.26384 4.07645,3.26807 4.07962,3.2721 4.08322,3.2759 4.08722,3.27944 4.0916,3.28272 4.09634,3.28569 4.10141,3.28835 4.10681,3.29068 4.11248,3.29264 4.11843,3.29421 4.12462,3.29539 4.13104,3.29614 4.15248,3.27071 4.14665,3.27003 4.14102,3.26896 4.13561,3.26753 4.13045,3.26574 4.12555,3.26363 4.12094,3.26121 4.11663,3.25851 4.11265,3.25553 4.10901,3.25231 4.10574,3.24886 4.10286,3.2452 4.10039,3.24135 4.09834,3.23733 4.09674,3.23316 4.09562,3.22885 "/>
    <polygon id="_515879424" class="fil7" points="4.15248,3.27071 4.13104,3.29614 4.13122,3.29601 4.15265,3.27059 "/>
   </g>
   <path id="_515880048" class="fil8" d="M4.15265 3.27059c0.0692756,0.00562992 0.143594,0.012315 0.222606,0.0199567 0.075878,0.00733858 0.148803,0.0149055 0.219035,0.0226772 0.00856693,0.00137402 0.0176417,0.00141732 0.0267362,-0.000125984 0.0347205,-0.00587795 0.0567244,-0.0324843 0.0491457,-0.0594173l-5.90551e-005 1.1811e-005c-0.0110984,-0.0394646 -0.0180315,-0.0642244 -0.0231102,-0.0825236l-0.0217362 -0.0785197c-0.0041378,-0.0213583 -0.0259803,-0.0389528 -0.0549646,-0.0420118l-0.000122047 0.000125984c-0.0775315,-0.00817323 -0.15039,-0.0154016 -0.2185,-0.0216575 -0.0662402,-0.00608661 -0.13748,-0.012126 -0.213622,-0.0181024 -0.00690157,-0.000976378 -0.0141142,-0.00109449 -0.0214409,-0.000212598 -0.0351102,0.00422835 -0.0591614,0.0297441 -0.0537165,0.0569803l0.000248031 -2.75591e-005c0.00823622,0.0412126 0.0138583,0.0687283 0.0195394,0.0965433l0.0122913 0.0601535c0.00204724,0.0237835 0.0258976,0.0436969 0.0575,0.0462677l0.000169291 -0.00011811z"/>
   <path id="_515879712" class="fil8" d="M4.43438 3.35959c-0.080248,-0.00896457 -0.15802,-0.0170551 -0.23335,-0.024252 -0.0061378,-0.000748031 -0.0125315,-0.000779528 -0.0189961,0 -0.0334882,0.00405118 -0.0563976,0.0284055 -0.0511772,0.0543858l0.00023622 -2.3622e-005 0.0170669 0.0844173c0.00720079,0.0355354 0.0145,0.0715079 0.0217835,0.107858 0.00185433,0.0222717 0.0237677,0.0411457 0.0533701,0.044122l0.000216535 -0.000161417c0.0740866,0.00744094 0.15439,0.0162795 0.240701,0.0264449 0.0806378,0.00949606 0.159894,0.0194882 0.237906,0.0299331 0.00851575,0.00152362 0.0175906,0.00164961 0.0266929,0.000122047 0.0331299,-0.00554724 0.0541929,-0.0308898 0.0470354,-0.0565945l-5.51181e-005 1.1811e-005 -0.0282244 -0.101524 -0.0266969 -0.0966772c-0.00385827,-0.0198701 -0.0237835,-0.0364331 -0.0507244,-0.039878l-0.000149606 0.000106299c-0.080378,-0.0102756 -0.158917,-0.0197165 -0.235634,-0.0282913z"/>
   <g>
    <polygon id="_513087392" class="fil9" points="4.52409,3.74056 4.52206,3.73896 4.51339,3.738 4.50474,3.73704 4.49611,3.73608 4.48749,3.73513 4.4789,3.73419 4.47031,3.73325 4.46175,3.73232 4.45319,3.7314 4.44466,3.73048 4.43614,3.72956 4.42765,3.72865 4.41916,3.72776 4.4107,3.72686 4.40224,3.72597 4.39381,3.72509 4.38539,3.72421 4.37699,3.72334 4.36861,3.72248 4.36024,3.72162 4.35189,3.72076 4.34355,3.71992 4.33524,3.71907 4.32694,3.71824 4.31865,3.71741 4.31038,3.71659 4.30213,3.71577 4.29389,3.71496 4.28567,3.71416 4.27747,3.71335 4.26928,3.71256 4.26112,3.71178 4.25296,3.711 4.27945,3.71514 4.28687,3.71585 4.29429,3.71656 4.30173,3.71728 4.30919,3.71801 4.31666,3.71874 4.32415,3.71948 4.33165,3.72022 4.33917,3.72097 4.3467,3.72172 4.35425,3.72248 4.36181,3.72325 4.36939,3.72402 4.37698,3.7248 4.38458,3.72557 4.3922,3.72636 4.39984,3.72715 4.4075,3.72795 4.41516,3.72875 4.42285,3.72956 4.43054,3.73037 4.43826,3.73119 4.44598,3.73202 4.45372,3.73285 4.46148,3.73369 4.46926,3.73453 4.47704,3.73537 4.48485,3.73622 4.49266,3.73708 4.5005,3.73794 4.50835,3.73881 4.51621,3.73969 "/>
    <polygon id="_513087320" class="fil9" points="4.27945,3.71514 4.25296,3.711 4.2503,3.71071 4.2476,3.7105 4.24489,3.71037 4.24215,3.71033 4.2394,3.71037 4.23663,3.71049 4.23385,3.7107 4.23106,3.711 4.25954,3.71514 4.26208,3.71487 4.26461,3.71468 4.26712,3.71457 4.26963,3.71454 4.27211,3.71457 4.27458,3.71469 4.27703,3.71488 "/>
    <polygon id="_513087584" class="fil9" points="4.20613,3.77213 4.1723,3.77368 4.192,3.87103 4.22403,3.86063 "/>
    <polygon id="_513087008" class="fil9" points="4.25954,3.71514 4.23106,3.711 4.22397,3.71214 4.21719,3.7138 4.21076,3.71595 4.2047,3.71855 4.19905,3.72158 4.19383,3.725 4.18907,3.72877 4.18481,3.73287 4.18107,3.73727 4.17788,3.74194 4.17528,3.74683 4.17329,3.75193 4.17194,3.7572 4.17126,3.76261 4.17128,3.76813 4.17204,3.77372 4.20588,3.77216 4.2052,3.76707 4.20518,3.76206 4.20579,3.75715 4.20702,3.75235 4.20883,3.74772 4.2112,3.74327 4.21409,3.73903 4.2175,3.73503 4.22137,3.7313 4.22569,3.72787 4.23044,3.72476 4.23558,3.72201 4.24108,3.71964 4.24693,3.71769 4.25309,3.71618 "/>
    <polygon id="_513088160" class="fil9" points="4.22403,3.86063 4.192,3.87103 4.19356,3.87872 4.19511,3.88642 4.19667,3.89414 4.19824,3.90186 4.1998,3.9096 4.20137,3.91735 4.20294,3.92511 4.20452,3.93287 4.20609,3.94066 4.20766,3.94845 4.20924,3.95625 4.21081,3.96406 4.21239,3.97189 4.21396,3.97972 4.21554,3.98757 4.21712,3.99542 4.24687,3.97371 4.24543,3.96657 4.244,3.95943 4.24257,3.95231 4.24113,3.9452 4.2397,3.9381 4.23827,3.931 4.23684,3.92392 4.23541,3.91685 4.23398,3.90978 4.23255,3.90273 4.23113,3.89569 4.2297,3.88865 4.22828,3.88163 4.22686,3.87462 4.22544,3.86762 "/>
    <polygon id="_513088064" class="fil9" points="4.24687,3.97371 4.21712,3.99542 4.21778,4.00019 4.21897,4.00484 4.22066,4.00936 4.22283,4.01372 4.22546,4.01791 4.22852,4.0219 4.23201,4.02567 4.23589,4.0292 4.24014,4.03248 4.24475,4.03547 4.24969,4.03815 4.25494,4.04052 4.26049,4.04253 4.2663,4.04419 4.27237,4.04545 4.27866,4.0463 4.30281,4.01996 4.29709,4.01919 4.29158,4.01804 4.2863,4.01654 4.28125,4.0147 4.27648,4.01256 4.27198,4.01011 4.2678,4.00739 4.26393,4.00442 4.2604,4.00121 4.25724,3.99778 4.25445,3.99415 4.25206,3.99035 4.25009,3.98638 4.24855,3.98227 4.24747,3.97804 "/>
    <polygon id="_513088208" class="fil9" points="4.30281,4.01996 4.27866,4.0463 4.27892,4.04612 4.30305,4.0198 "/>
    <polygon id="_513087968" class="fil9" points="4.30305,4.0198 4.27892,4.04612 4.28694,4.04693 4.29502,4.04775 4.30313,4.04857 4.31129,4.04941 4.31949,4.05026 4.32772,4.05111 4.33601,4.05198 4.34433,4.05286 4.35269,4.05374 4.3611,4.05463 4.36955,4.05554 4.37804,4.05644 4.38657,4.05737 4.39515,4.0583 4.40376,4.05924 4.41241,4.06019 4.42111,4.06115 4.42985,4.06211 4.43863,4.06309 4.44744,4.06408 4.45631,4.06507 4.46521,4.06607 4.47416,4.06709 4.48314,4.06811 4.49217,4.06915 4.50123,4.07019 4.51034,4.07123 4.51949,4.07229 4.52868,4.07336 4.53791,4.07444 4.54718,4.07552 4.55649,4.07661 4.55539,4.04752 4.54693,4.04652 4.5385,4.04554 4.53011,4.04456 4.52175,4.04359 4.51343,4.04263 4.50515,4.04167 4.49691,4.04073 4.4887,4.03979 4.48054,4.03886 4.47241,4.03794 4.46431,4.03703 4.45626,4.03612 4.44824,4.03522 4.44026,4.03434 4.43231,4.03346 4.42441,4.03259 4.41654,4.03172 4.40871,4.03087 4.40091,4.03002 4.39316,4.02919 4.38544,4.02836 4.37776,4.02754 4.37012,4.02672 4.36251,4.02592 4.35495,4.02513 4.34742,4.02434 4.33993,4.02356 4.33248,4.02279 4.32506,4.02203 4.31769,4.02128 4.31035,4.02053 "/>
    <polygon id="_513087992" class="fil9" points="4.55539,4.04752 4.55649,4.07661 4.56521,4.07764 4.57391,4.07868 4.5826,4.07971 4.59129,4.08075 4.59996,4.08179 4.60863,4.08283 4.61729,4.08388 4.62594,4.08493 4.63458,4.08599 4.64321,4.08705 4.65183,4.08811 4.66045,4.08917 4.66905,4.09024 4.67765,4.09131 4.68623,4.09238 4.69481,4.09346 4.70337,4.09454 4.71194,4.09563 4.72048,4.09671 4.72902,4.0978 4.73756,4.0989 4.74608,4.09999 4.7546,4.10109 4.7631,4.1022 4.7716,4.1033 4.78009,4.10441 4.78857,4.10552 4.79704,4.10664 4.8055,4.10776 4.81396,4.10888 4.82241,4.11 4.83084,4.11113 4.8048,4.0789 4.79713,4.07787 4.78945,4.07685 4.78176,4.07583 4.77407,4.07481 4.76637,4.0738 4.75866,4.07279 4.75094,4.07178 4.74322,4.07078 4.73548,4.06977 4.72774,4.06877 4.72,4.06778 4.71224,4.06678 4.70447,4.06579 4.6967,4.0648 4.68892,4.06382 4.68113,4.06283 4.67333,4.06185 4.66553,4.06088 4.65771,4.05991 4.64989,4.05893 4.64206,4.05797 4.63422,4.057 4.62638,4.05604 4.61852,4.05508 4.61066,4.05413 4.60279,4.05317 4.59491,4.05222 4.58702,4.05128 4.57913,4.05033 4.57122,4.04939 4.56331,4.04845 "/>
    <polygon id="_513087800" class="fil9" points="4.8048,4.0789 4.83084,4.11113 4.83456,4.11171 4.83832,4.11214 4.84213,4.11241 4.84598,4.11252 4.84987,4.11246 4.85377,4.11224 4.85769,4.11185 4.86163,4.11128 4.83278,4.07903 4.82921,4.07955 4.82564,4.07991 4.82209,4.08011 4.81856,4.08016 4.81506,4.08006 4.8116,4.07981 4.80817,4.07943 "/>
    <polygon id="_513087944" class="fil9" points="4.88204,4.01971 4.91581,4.04602 4.88326,3.92894 4.85245,3.91327 "/>
    <polygon id="_513088280" class="fil9" points="4.83278,4.07903 4.86163,4.11128 4.86863,4.10981 4.87527,4.10785 4.88153,4.10542 4.88738,4.10255 4.8928,4.09927 4.89776,4.09563 4.90222,4.09165 4.90617,4.08736 4.90958,4.0828 4.91241,4.078 4.91464,4.07299 4.91626,4.06781 4.91721,4.06249 4.91748,4.05706 4.91704,4.05156 4.91587,4.04601 4.8821,4.0197 4.88316,4.02474 4.88356,4.02974 4.88331,4.03468 4.88244,4.03952 4.88098,4.04422 4.87895,4.04878 4.87638,4.05314 4.87328,4.05729 4.86969,4.06119 4.86563,4.06481 4.86113,4.06812 4.8562,4.07109 4.85088,4.0737 4.84519,4.07592 4.83915,4.0777 "/>
    <polygon id="_513088352" class="fil9" points="4.85245,3.91327 4.88326,3.92894 4.85247,3.81746 4.82446,3.81192 "/>
    <polygon id="_513087704" class="fil9" points="4.77113,3.77022 4.7938,3.77159 4.78512,3.77048 4.77645,3.76937 4.76779,3.76828 4.75915,3.76719 4.75051,3.7661 4.74189,3.76502 4.73328,3.76394 4.72468,3.76288 4.7161,3.76181 4.70753,3.76076 4.69896,3.7597 4.69042,3.75866 4.68189,3.75762 4.67336,3.75659 4.66485,3.75556 4.65635,3.75454 4.64787,3.75352 4.63939,3.75251 4.63093,3.7515 4.62248,3.7505 4.61404,3.74951 4.60562,3.74852 4.59721,3.74754 4.58881,3.74656 4.58043,3.74559 4.57205,3.74463 4.56369,3.74367 4.55534,3.74272 4.547,3.74177 4.53867,3.74083 4.53036,3.73989 4.52206,3.73896 4.52409,3.74056 4.53163,3.74141 4.53919,3.74226 4.54676,3.74311 4.55434,3.74398 4.56193,3.74484 4.56953,3.74571 4.57715,3.74659 4.58477,3.74747 4.59241,3.74836 4.60005,3.74926 4.60771,3.75015 4.61538,3.75106 4.62306,3.75196 4.63075,3.75288 4.63846,3.7538 4.64617,3.75472 4.65389,3.75565 4.66163,3.75659 4.66938,3.75753 4.67714,3.75847 4.68491,3.75942 4.69269,3.76038 4.70048,3.76134 4.70829,3.7623 4.7161,3.76328 4.72393,3.76425 4.73177,3.76523 4.73962,3.76622 4.74748,3.76721 4.75535,3.76821 4.76323,3.76921 "/>
    <polygon id="_513088568" class="fil9" points="4.82446,3.81192 4.85247,3.81746 4.85143,3.81321 4.84996,3.80906 4.84809,3.80504 4.84582,3.80116 4.84319,3.79744 4.8402,3.79388 4.83687,3.79052 4.83321,3.78736 4.82923,3.78442 4.82496,3.78172 4.82042,3.77927 4.81559,3.7771 4.81053,3.77522 4.80523,3.77364 4.7997,3.77238 4.79398,3.77146 4.77128,3.77011 4.77649,3.77094 4.78151,3.77209 4.78633,3.77352 4.79094,3.77524 4.79532,3.77721 4.79945,3.77943 4.80333,3.78189 4.80695,3.78456 4.81028,3.78743 4.81331,3.79049 4.81602,3.79372 4.81842,3.79711 4.82047,3.80064 4.82217,3.80429 4.82351,3.80806 "/>
   </g>
   <path id="_515880096" class="fil8" d="M4.52409 3.74056c-0.0841181,-0.00940157 -0.165654,-0.0178819 -0.244634,-0.0254252 -0.00643701,-0.000787402 -0.0131339,-0.000822835 -0.0199094,0 -0.0351102,0.00424803 -0.0591339,0.0297835 -0.0536614,0.0570197l0.000244094 -3.14961e-005 0.0179016 0.0885c0.00754331,0.0372598 0.0151929,0.0749685 0.0228386,0.113083 0.00192913,0.0233465 0.0249173,0.0431339 0.0559488,0.0462559l0.000232283 -0.000169291c0.0776614,0.00780315 0.16185,0.0170669 0.252343,0.0277244 0.0845354,0.00995276 0.167634,0.0204291 0.249409,0.031378 0.00893307,0.00159449 0.0184409,0.00173228 0.0279843,0.000133858 0.0347362,-0.0058189 0.0568189,-0.0323898 0.049315,-0.0593346l-5.51181e-005 1.1811e-005 -0.0295945 -0.106437 -0.0279882 -0.10135c-0.00403937,-0.0208307 -0.024937,-0.0382008 -0.0531772,-0.041815l-0.00015748 0.000114173c-0.0842638,-0.0107756 -0.166606,-0.0206693 -0.247039,-0.0296575z"/>
   <path id="_515879688" class="fil8" d="M2.41816 3.36961c-0.0739882,0.00839764 -0.149429,0.017622 -0.226299,0.0276772 -0.0295945,0.00230709 -0.0541063,0.0203937 -0.0574646,0.044248l0.000122047 0.00015748 -0.00904331 0.0642087c-0.00533071,0.0378307 -0.0107441,0.0761535 -0.0161417,0.114965 -0.00129921,0.0056063 -0.00136614,0.0114921 -2.3622e-005,0.0174331 0.00612992,0.0271575 0.0394803,0.045311 0.0744803,0.0405551 0.077748,-0.0105984 0.155827,-0.0204606 0.234122,-0.0296339 0.0832874,-0.00975591 0.160819,-0.0182008 0.232736,-0.0253583 0.0329882,-0.000988189 0.0601142,-0.0214173 0.0617244,-0.0474843l-0.000173228 -5.90551e-005 0.0038937 -0.0635906c0.00229528,-0.0377126 0.0045748,-0.0749291 0.00693307,-0.11178 0.000665354,-0.00404724 0.000688976,-0.00822835 1.1811e-005,-0.0124646 -0.00437795,-0.0273583 -0.0365236,-0.0467795 -0.0717913,-0.0433819 -0.0762874,0.00737008 -0.154004,0.0155315 -0.233087,0.0245079z"/>
   <g>
    <polygon id="_515879040" class="fil7" points="2.19297,3.65551 2.16891,3.68839 2.17644,3.68743 2.18399,3.68647 2.19155,3.68551 2.19913,3.68456 2.20672,3.68361 2.21432,3.68267 2.22193,3.68172 2.22956,3.68078 2.2372,3.67984 2.24485,3.67891 2.25251,3.67797 2.26019,3.67704 2.26788,3.67611 2.27558,3.67519 2.2833,3.67426 2.29102,3.67334 2.29877,3.67243 2.30652,3.67151 2.31428,3.6706 2.32206,3.66969 2.32985,3.66878 2.33765,3.66787 2.34546,3.66697 2.35329,3.66607 2.36113,3.66517 2.36898,3.66427 2.37684,3.66338 2.38471,3.66249 2.3926,3.6616 2.4005,3.66072 2.40841,3.65983 2.41633,3.65895 2.41389,3.62923 2.40681,3.63002 2.39975,3.6308 2.3927,3.63159 2.38566,3.63239 2.37863,3.63318 2.37161,3.63398 2.3646,3.63478 2.3576,3.63558 2.35061,3.63639 2.34364,3.63719 2.33667,3.638 2.32972,3.63881 2.32278,3.63963 2.31584,3.64044 2.30892,3.64126 2.30201,3.64208 2.29511,3.6429 2.28822,3.64372 2.28134,3.64455 2.27448,3.64538 2.26762,3.64621 2.26078,3.64705 2.25395,3.64788 2.24713,3.64872 2.24032,3.64956 2.23352,3.65041 2.22673,3.65125 2.21996,3.65209 2.21319,3.65294 2.20644,3.6538 2.1997,3.65465 "/>
    <polygon id="_515879304" class="fil7" points="2.41389,3.62923 2.41633,3.65895 2.42383,3.65812 2.43135,3.65729 2.43888,3.65647 2.44644,3.65565 2.45401,3.65482 2.46159,3.654 2.4692,3.65319 2.47683,3.65237 2.48447,3.65156 2.49213,3.65075 2.49981,3.64994 2.50751,3.64913 2.51522,3.64833 2.52295,3.64753 2.5307,3.64673 2.53846,3.64593 2.54625,3.64513 2.55405,3.64434 2.56187,3.64355 2.5697,3.64276 2.57756,3.64197 2.58543,3.64119 2.59331,3.64041 2.60122,3.63962 2.60914,3.63884 2.61708,3.63807 2.62503,3.63729 2.633,3.63652 2.64099,3.63575 2.649,3.63498 2.65702,3.63421 2.66506,3.63345 2.63596,3.60646 2.62879,3.60714 2.62163,3.60783 2.61448,3.60851 2.60735,3.6092 2.60023,3.60989 2.59313,3.61058 2.58604,3.61128 2.57896,3.61197 2.57191,3.61267 2.56487,3.61337 2.55784,3.61407 2.55083,3.61477 2.54383,3.61548 2.53685,3.61618 2.52989,3.61689 2.52294,3.6176 2.516,3.61831 2.50908,3.61903 2.50218,3.61974 2.4953,3.62046 2.48842,3.62119 2.48157,3.62191 2.47473,3.62263 2.4679,3.62335 2.46109,3.62408 2.4543,3.62481 2.44753,3.62554 2.44077,3.62628 2.43402,3.62701 2.4273,3.62775 2.42058,3.62849 "/>
    <polygon id="_515879184" class="fil7" points="2.63596,3.60646 2.66506,3.63345 2.67159,3.63276 2.67794,3.63162 2.68407,3.63006 2.68995,3.62809 2.69555,3.62574 2.70085,3.62302 2.70581,3.61996 2.7104,3.61658 2.71461,3.61289 2.71839,3.60893 2.72171,3.6047 2.72456,3.60024 2.72689,3.59554 2.72868,3.59066 2.7299,3.58559 2.73053,3.58037 2.69442,3.55906 2.69386,3.56373 2.69277,3.56825 2.69117,3.57261 2.68909,3.5768 2.68655,3.58079 2.68358,3.58457 2.6802,3.58811 2.67645,3.5914 2.67235,3.59442 2.66792,3.59715 2.66319,3.59957 2.65819,3.60167 2.65294,3.60343 2.64747,3.60483 2.6418,3.60584 "/>
    <polygon id="_515879280" class="fil7" points="2.69442,3.55906 2.73053,3.58037 2.73033,3.58017 2.69424,3.55889 "/>
    <polygon id="_515878224" class="fil7" points="2.69424,3.55889 2.73033,3.58017 2.7307,3.57401 2.73107,3.56775 2.73146,3.56139 2.73185,3.55495 2.73226,3.54843 2.73267,3.54183 2.73309,3.53517 2.7335,3.52845 2.73393,3.52168 2.73436,3.51486 2.7348,3.50801 2.73523,3.50113 2.73567,3.49422 2.73611,3.4873 2.73656,3.48036 2.737,3.47343 2.7002,3.46358 2.6998,3.46978 2.69941,3.47596 2.69901,3.48215 2.69862,3.48831 2.69823,3.49446 2.69784,3.50058 2.69746,3.50667 2.69708,3.51271 2.6967,3.51871 2.69633,3.52466 2.69597,3.53055 2.69561,3.53637 2.69526,3.54212 2.69491,3.5478 2.69457,3.55339 "/>
    <polygon id="_515878032" class="fil7" points="2.7002,3.46358 2.737,3.47343 2.74125,3.40615 2.704,3.40352 "/>
    <polygon id="_515878008" class="fil7" points="2.704,3.40352 2.74125,3.40615 2.74148,3.4045 2.74165,3.40283 2.74176,3.40115 2.7418,3.39946 2.74178,3.39776 2.74169,3.39605 2.74154,3.39433 2.7413,3.39261 2.70404,3.39143 2.70425,3.39296 2.70439,3.3945 2.70447,3.39602 2.70449,3.39754 2.70445,3.39905 2.70435,3.40055 2.7042,3.40204 "/>
    <polygon id="_515878296" class="fil7" points="2.63258,3.34777 2.66127,3.34372 2.6539,3.34439 2.64652,3.34508 2.63911,3.34576 2.63169,3.34646 2.62425,3.34716 2.61679,3.34787 2.60931,3.34858 2.60181,3.3493 2.5943,3.35002 2.58677,3.35075 2.57921,3.35149 2.57164,3.35223 2.56405,3.35298 2.55644,3.35373 2.54881,3.35449 2.54117,3.35525 2.5335,3.35602 2.52582,3.3568 2.51812,3.35758 2.51039,3.35836 2.50266,3.35916 2.4949,3.35996 2.48712,3.36076 2.47933,3.36156 2.47151,3.36238 2.46368,3.3632 2.45583,3.36403 2.44796,3.36486 2.44007,3.3657 2.43216,3.36654 2.42424,3.36739 2.41629,3.36824 2.41385,3.36967 2.42095,3.36891 2.42802,3.36815 2.43508,3.36739 2.44213,3.36665 2.44915,3.36591 2.45616,3.36517 2.46316,3.36443 2.47013,3.3637 2.47709,3.36298 2.48404,3.36227 2.49096,3.36156 2.49787,3.36085 2.50477,3.36015 2.51165,3.35944 2.5185,3.35876 2.52535,3.35807 2.53218,3.35739 2.53899,3.35671 2.54578,3.35604 2.55256,3.35537 2.55932,3.35471 2.56606,3.35405 2.57279,3.3534 2.5795,3.35275 2.58619,3.35211 2.59287,3.35148 2.59953,3.35085 2.60617,3.35022 2.6128,3.3496 2.61941,3.34898 2.626,3.34837 "/>
    <polygon id="_515877912" class="fil7" points="2.70404,3.39143 2.7413,3.39261 2.74007,3.38697 2.73814,3.38156 2.73557,3.3764 2.73239,3.37152 2.72863,3.36694 2.72435,3.3627 2.71957,3.3588 2.71435,3.35528 2.70872,3.35217 2.70272,3.34947 2.6964,3.34723 2.68978,3.34547 2.68293,3.3442 2.67585,3.34347 2.66862,3.34328 2.66126,3.34366 2.63257,3.34772 2.63915,3.34738 2.64561,3.34755 2.65192,3.3482 2.65804,3.34933 2.66395,3.35091 2.66959,3.35291 2.67495,3.35531 2.67998,3.35809 2.68464,3.36124 2.6889,3.36472 2.69272,3.36851 2.69608,3.37259 2.69892,3.37695 2.70122,3.38156 2.70294,3.38639 "/>
    <polygon id="_515877168" class="fil7" points="2.41385,3.36967 2.41629,3.36824 2.40903,3.36903 2.40175,3.36982 2.39446,3.37061 2.38715,3.37141 2.37983,3.37222 2.37251,3.37303 2.36517,3.37385 2.35781,3.37467 2.35044,3.37549 2.34307,3.37632 2.33567,3.37716 2.32827,3.378 2.32085,3.37885 2.31342,3.3797 2.30598,3.38056 2.29852,3.38142 2.29106,3.38228 2.28358,3.38316 2.27609,3.38404 2.26858,3.38492 2.26107,3.3858 2.25354,3.38669 2.246,3.38759 2.23844,3.38849 2.23087,3.3894 2.22329,3.39031 2.2157,3.39123 2.2081,3.39216 2.20048,3.39308 2.19285,3.39402 2.18521,3.39495 2.17756,3.3959 2.2007,3.39436 2.20753,3.39352 2.21435,3.39268 2.22117,3.39185 2.22796,3.39102 2.23476,3.39019 2.24153,3.38937 2.2483,3.38856 2.25506,3.38775 2.2618,3.38694 2.26854,3.38614 2.27526,3.38535 2.28197,3.38456 2.28867,3.38377 2.29536,3.38298 2.30204,3.3822 2.3087,3.38143 2.31536,3.38066 2.322,3.3799 2.32864,3.37914 2.33526,3.37838 2.34187,3.37763 2.34847,3.37688 2.35506,3.37614 2.36164,3.3754 2.3682,3.37467 2.37476,3.37394 2.3813,3.37322 2.38783,3.3725 2.39436,3.37178 2.40087,3.37107 2.40737,3.37037 "/>
    <polygon id="_515877840" class="fil7" points="2.2007,3.39436 2.17756,3.3959 2.17126,3.39648 2.16513,3.39748 2.15917,3.39887 2.15343,3.40065 2.14794,3.4028 2.14271,3.40529 2.13778,3.40811 2.13317,3.41125 2.12892,3.41468 2.12504,3.41839 2.12157,3.42236 2.11854,3.42657 2.11598,3.43101 2.1139,3.43567 2.11235,3.44051 2.11134,3.44552 2.14157,3.43867 2.14248,3.43419 2.14386,3.42987 2.14572,3.42571 2.14801,3.42175 2.15071,3.41799 2.15381,3.41444 2.15727,3.41113 2.16107,3.40807 2.16518,3.40527 2.16958,3.40275 2.17425,3.40052 2.17916,3.39861 2.18428,3.39702 2.1896,3.39577 2.19507,3.39488 "/>
    <polygon id="_515877624" class="fil7" points="2.14157,3.43867 2.11134,3.44552 2.11147,3.44554 2.14169,3.43869 "/>
    <polygon id="_515877240" class="fil7" points="2.14169,3.43869 2.11147,3.44554 2.10018,3.52555 2.13161,3.51012 "/>
    <polygon id="_515877312" class="fil7" points="2.13161,3.51012 2.10018,3.52555 2.08624,3.62377 2.11916,3.59782 "/>
    <polygon id="_515876952" class="fil7" points="2.11916,3.59782 2.08624,3.62377 2.08579,3.62604 2.08546,3.62833 2.08526,3.63064 2.08517,3.63297 2.08522,3.63531 2.08539,3.63768 2.0857,3.64005 2.08613,3.64243 2.11907,3.61448 2.11868,3.61235 2.11841,3.61024 2.11825,3.60813 2.11821,3.60603 2.11829,3.60395 2.11847,3.60189 2.11876,3.59984 "/>
    <polygon id="_515876520" class="fil7" points="2.11907,3.61448 2.08613,3.64243 2.0877,3.64802 2.08993,3.65337 2.09281,3.65843 2.09627,3.66319 2.10029,3.66763 2.10481,3.67172 2.10981,3.67545 2.11523,3.67878 2.12104,3.6817 2.12719,3.68418 2.13363,3.68619 2.14034,3.68772 2.14727,3.68874 2.15437,3.68924 2.16161,3.68917 2.16894,3.68853 2.193,3.65564 2.18646,3.65621 2.18,3.65627 2.17365,3.65583 2.16747,3.65492 2.16148,3.65355 2.15572,3.65175 2.15023,3.64954 2.14505,3.64693 2.14021,3.64396 2.13575,3.64063 2.13171,3.63698 2.12812,3.63302 2.12503,3.62876 2.12246,3.62424 2.12046,3.61947 "/>
   </g>
   <g>
    <polygon id="_515876856" class="fil7" points="2.15859,4.04652 2.13453,4.08105 2.14206,4.08005 2.14961,4.07904 2.15717,4.07803 2.16475,4.07704 2.17234,4.07604 2.17994,4.07505 2.18756,4.07406 2.19518,4.07307 2.20282,4.07208 2.21047,4.0711 2.21813,4.07011 2.22581,4.06914 2.2335,4.06816 2.2412,4.06719 2.24892,4.06622 2.25665,4.06525 2.26439,4.06429 2.27214,4.06332 2.27991,4.06237 2.28768,4.06141 2.29547,4.06045 2.30327,4.0595 2.31109,4.05856 2.31891,4.05761 2.32675,4.05667 2.3346,4.05572 2.34246,4.05478 2.35033,4.05385 2.35822,4.05292 2.36612,4.05199 2.37403,4.05106 2.38195,4.05013 2.37951,4.01891 2.37243,4.01974 2.36537,4.02057 2.35832,4.0214 2.35128,4.02223 2.34425,4.02306 2.33723,4.0239 2.33022,4.02474 2.32322,4.02559 2.31624,4.02643 2.30926,4.02728 2.3023,4.02813 2.29534,4.02898 2.2884,4.02983 2.28146,4.03069 2.27454,4.03155 2.26763,4.03241 2.26073,4.03328 2.25384,4.03414 2.24696,4.03501 2.2401,4.03588 2.23324,4.03675 2.2264,4.03763 2.21957,4.0385 2.21275,4.03939 2.20594,4.04027 2.19914,4.04116 2.19235,4.04204 2.18558,4.04293 2.17881,4.04382 2.17206,4.04472 2.16532,4.04562 "/>
    <polygon id="_515875776" class="fil7" points="2.37951,4.01891 2.38195,4.05013 2.38945,4.04926 2.39697,4.04839 2.4045,4.04752 2.41206,4.04666 2.41963,4.0458 2.42722,4.04494 2.43482,4.04408 2.44245,4.04322 2.45009,4.04237 2.45775,4.04152 2.46543,4.04067 2.47313,4.03982 2.48084,4.03898 2.48857,4.03813 2.49632,4.0373 2.50409,4.03645 2.51187,4.03562 2.51967,4.03478 2.52749,4.03395 2.53532,4.03313 2.54318,4.0323 2.55105,4.03147 2.55894,4.03065 2.56684,4.02983 2.57476,4.02901 2.5827,4.0282 2.59065,4.02738 2.59863,4.02657 2.60661,4.02576 2.61462,4.02495 2.62264,4.02415 2.63068,4.02335 2.60159,3.995 2.59441,3.99571 2.58725,3.99643 2.5801,3.99715 2.57297,3.99787 2.56585,3.9986 2.55875,3.99933 2.55166,4.00006 2.54459,4.00078 2.53753,4.00152 2.53049,4.00225 2.52346,4.00298 2.51645,4.00372 2.50945,4.00447 2.50247,4.00521 2.49551,4.00595 2.48856,4.0067 2.48163,4.00745 2.4747,4.0082 2.4678,4.00895 2.46092,4.0097 2.45404,4.01046 2.44719,4.01122 2.44035,4.01198 2.43352,4.01274 2.42672,4.01351 2.41993,4.01427 2.41315,4.01504 2.40639,4.01581 2.39964,4.01658 2.39292,4.01736 2.3862,4.01813 "/>
    <polygon id="_515875968" class="fil7" points="2.60159,3.995 2.63068,4.02335 2.63722,4.02262 2.64356,4.02143 2.64969,4.01978 2.65557,4.01772 2.66117,4.01525 2.66647,4.01239 2.67143,4.00918 2.67602,4.00563 2.68023,4.00175 2.68401,3.99759 2.68733,3.99315 2.69018,3.98846 2.69251,3.98353 2.6943,3.9784 2.69552,3.97307 2.69615,3.96759 2.66004,3.94521 2.65948,3.95011 2.65839,3.95486 2.65679,3.95944 2.65471,3.96384 2.65217,3.96803 2.6492,3.972 2.64583,3.97572 2.64207,3.97917 2.63797,3.98235 2.63354,3.98522 2.62881,3.98776 2.62381,3.98997 2.61856,3.99181 2.61309,3.99328 2.60743,3.99435 "/>
    <polygon id="_515875992" class="fil7" points="2.66004,3.94521 2.69615,3.96759 2.69595,3.96738 2.65986,3.94503 "/>
    <polygon id="_515875896" class="fil7" points="2.65986,3.94503 2.69595,3.96738 2.69632,3.96091 2.6967,3.95433 2.69709,3.94766 2.69748,3.94089 2.69788,3.93404 2.69829,3.92711 2.69871,3.92011 2.69913,3.91306 2.69956,3.90594 2.69998,3.89878 2.70042,3.89158 2.70085,3.88435 2.70129,3.8771 2.70173,3.86982 2.70218,3.86254 2.70262,3.85526 2.66582,3.84491 2.66543,3.85142 2.66503,3.85792 2.66463,3.86442 2.66424,3.87089 2.66385,3.87735 2.66346,3.88378 2.66308,3.89017 2.6627,3.89652 2.66233,3.90282 2.66195,3.90907 2.66159,3.91526 2.66123,3.92137 2.66088,3.92741 2.66053,3.93337 2.66019,3.93925 "/>
    <polygon id="_515875584" class="fil7" points="2.66582,3.84491 2.70262,3.85526 2.70687,3.78459 2.66962,3.78182 "/>
    <polygon id="_515875488" class="fil7" points="2.66962,3.78182 2.70687,3.78459 2.70711,3.78285 2.70728,3.7811 2.70739,3.77933 2.70743,3.77756 2.7074,3.77578 2.70731,3.77398 2.70716,3.77218 2.70693,3.77037 2.66967,3.76913 2.66987,3.77074 2.67001,3.77235 2.67009,3.77395 2.67011,3.77554 2.67007,3.77713 2.66998,3.7787 2.66983,3.78026 "/>
    <polygon id="_515875056" class="fil7" points="2.5982,3.72326 2.62689,3.71901 2.61952,3.71972 2.61214,3.72044 2.60474,3.72116 2.59731,3.72189 2.58987,3.72263 2.58241,3.72337 2.57493,3.72412 2.56744,3.72487 2.55993,3.72563 2.55239,3.7264 2.54483,3.72717 2.53726,3.72795 2.52967,3.72873 2.52207,3.72952 2.51444,3.73032 2.50679,3.73112 2.49912,3.73193 2.49144,3.73274 2.48374,3.73357 2.47602,3.73439 2.46828,3.73522 2.46052,3.73607 2.45274,3.73691 2.44495,3.73775 2.43713,3.73861 2.4293,3.73947 2.42145,3.74034 2.41358,3.74121 2.40569,3.74209 2.39778,3.74298 2.38986,3.74387 2.38191,3.74477 2.37948,3.74627 2.38657,3.74546 2.39365,3.74467 2.4007,3.74388 2.40775,3.74309 2.41478,3.74231 2.42178,3.74154 2.42878,3.74077 2.43576,3.74 2.44272,3.73924 2.44966,3.73849 2.45659,3.73774 2.4635,3.737 2.47039,3.73626 2.47727,3.73553 2.48413,3.7348 2.49097,3.73408 2.4978,3.73337 2.50461,3.73265 2.5114,3.73194 2.51818,3.73125 2.52494,3.73055 2.53169,3.72986 2.53841,3.72918 2.54512,3.7285 2.55181,3.72783 2.55849,3.72716 2.56515,3.7265 2.5718,3.72584 2.57843,3.72519 2.58504,3.72454 2.59163,3.7239 "/>
    <polygon id="_515875296" class="fil7" points="2.66967,3.76913 2.70693,3.77037 2.70569,3.76444 2.70376,3.75876 2.70119,3.75334 2.69801,3.74821 2.69425,3.74341 2.68997,3.73894 2.6852,3.73485 2.67997,3.73115 2.67435,3.72788 2.66834,3.72505 2.66202,3.7227 2.65541,3.72085 2.64855,3.71952 2.64148,3.71874 2.63424,3.71855 2.62688,3.71895 2.59819,3.72321 2.60477,3.72285 2.61123,3.72303 2.61754,3.72372 2.62367,3.72491 2.62957,3.72656 2.63522,3.72866 2.64057,3.73119 2.6456,3.73411 2.65026,3.73741 2.65452,3.74107 2.65835,3.74505 2.6617,3.74934 2.66454,3.75392 2.66684,3.75876 2.66856,3.76383 "/>
    <polygon id="_515875440" class="fil7" points="2.37948,3.74627 2.38191,3.74477 2.37465,3.7456 2.36737,3.74643 2.36008,3.74726 2.35277,3.7481 2.34546,3.74895 2.33813,3.7498 2.33079,3.75065 2.32343,3.75152 2.31606,3.75238 2.30869,3.75326 2.3013,3.75414 2.29389,3.75502 2.28647,3.75591 2.27904,3.7568 2.2716,3.7577 2.26415,3.75861 2.25668,3.75952 2.2492,3.76044 2.24171,3.76136 2.2342,3.76228 2.22669,3.76322 2.21916,3.76415 2.21162,3.76509 2.20406,3.76604 2.19649,3.767 2.18891,3.76795 2.18133,3.76892 2.17372,3.76989 2.1661,3.77086 2.15848,3.77184 2.15083,3.77283 2.14318,3.77382 2.16632,3.7722 2.17315,3.77131 2.17998,3.77044 2.18679,3.76956 2.19359,3.76869 2.20038,3.76783 2.20715,3.76696 2.21392,3.76611 2.22068,3.76526 2.22743,3.76441 2.23416,3.76357 2.24088,3.76274 2.24759,3.76191 2.25429,3.76107 2.26098,3.76025 2.26766,3.75943 2.27433,3.75862 2.28098,3.75781 2.28763,3.75701 2.29426,3.75621 2.30088,3.75542 2.3075,3.75463 2.31409,3.75384 2.32068,3.75307 2.32726,3.75229 2.33383,3.75152 2.34038,3.75076 2.34693,3.75 2.35346,3.74924 2.35998,3.74849 2.36649,3.74774 2.37299,3.747 "/>
    <polygon id="_515875176" class="fil7" points="2.16632,3.7722 2.14318,3.77382 2.13688,3.77443 2.13075,3.77548 2.1248,3.77694 2.11906,3.77881 2.11356,3.78107 2.10833,3.78369 2.1034,3.78665 2.09879,3.78994 2.09454,3.79355 2.09066,3.79744 2.0872,3.80162 2.08417,3.80604 2.0816,3.8107 2.07952,3.81559 2.07797,3.82068 2.07696,3.82594 2.1072,3.81874 2.1081,3.81404 2.10948,3.8095 2.11134,3.80514 2.11363,3.80097 2.11633,3.79702 2.11943,3.7933 2.12289,3.78982 2.12669,3.7866 2.1308,3.78366 2.1352,3.78102 2.13987,3.77867 2.14478,3.77666 2.14991,3.77499 2.15522,3.77368 2.1607,3.77275 "/>
    <polygon id="_515874456" class="fil7" points="2.1072,3.81874 2.07696,3.82594 2.07709,3.82596 2.10731,3.81876 "/>
    <polygon id="_515874432" class="fil7" points="2.10731,3.81876 2.07709,3.82596 2.0658,3.91 2.09723,3.8938 "/>
    <polygon id="_515874696" class="fil7" points="2.09723,3.8938 2.0658,3.91 2.05186,4.01318 2.08478,3.98592 "/>
    <polygon id="_515874768" class="fil7" points="2.08478,3.98592 2.05186,4.01318 2.05141,4.01556 2.05108,4.01797 2.05088,4.0204 2.0508,4.02285 2.05084,4.02531 2.05101,4.02779 2.05132,4.03028 2.05176,4.03278 2.08469,4.00342 2.0843,4.00119 2.08403,3.99896 2.08387,3.99674 2.08383,3.99455 2.08391,3.99236 2.08409,3.9902 2.08439,3.98804 "/>
    <polygon id="_515873280" class="fil7" points="2.08469,4.00342 2.05176,4.03278 2.05332,4.03865 2.05556,4.04427 2.05843,4.04959 2.06189,4.05459 2.06591,4.05925 2.07044,4.06355 2.07543,4.06747 2.08085,4.07096 2.08666,4.07403 2.09281,4.07663 2.09926,4.07875 2.10596,4.08036 2.11289,4.08143 2.11999,4.08194 2.12723,4.08188 2.13456,4.0812 2.15863,4.04665 2.15208,4.04726 2.14562,4.04731 2.13928,4.04685 2.13309,4.0459 2.1271,4.04446 2.12134,4.04257 2.11585,4.04025 2.11067,4.03751 2.10583,4.03439 2.10137,4.03089 2.09733,4.02706 2.09374,4.02289 2.09065,4.01843 2.08808,4.01367 2.08609,4.00867 "/>
   </g>
   <g>
    <polygon id="_515873496" class="fil7" points="3.21661,3.56874 3.19456,3.59548 3.20226,3.59533 3.20996,3.5952 3.21766,3.59506 3.22536,3.59493 3.23306,3.59481 3.24074,3.59468 3.24843,3.59456 3.25611,3.59444 3.26378,3.59433 3.27146,3.59422 3.27913,3.59411 3.2868,3.59401 3.29446,3.59391 3.30211,3.59382 3.30977,3.59373 3.31742,3.59364 3.32507,3.59356 3.33271,3.59347 3.34035,3.5934 3.34799,3.59332 3.35562,3.59326 3.36325,3.59319 3.37087,3.59313 3.37849,3.59307 3.38611,3.59302 3.39371,3.59296 3.40132,3.59292 3.40893,3.59287 3.41652,3.59283 3.42412,3.5928 3.43171,3.59277 3.4393,3.59274 3.4391,3.56626 3.4322,3.56628 3.4253,3.56631 3.4184,3.56634 3.41149,3.56638 3.40458,3.56642 3.39766,3.56646 3.39074,3.56651 3.38382,3.56656 3.37689,3.56661 3.36996,3.56667 3.36303,3.56672 3.35609,3.56679 3.34915,3.56685 3.3422,3.56692 3.33526,3.567 3.3283,3.56707 3.32135,3.56715 3.31439,3.56724 3.30743,3.56732 3.30046,3.56741 3.29349,3.5675 3.28652,3.5676 3.27954,3.5677 3.27256,3.5678 3.26558,3.56791 3.25859,3.56802 3.25161,3.56813 3.24461,3.56825 3.23761,3.56837 3.23061,3.56849 3.22361,3.56861 "/>
    <polygon id="_515873304" class="fil7" points="3.15072,3.52022 3.12208,3.5421 3.12263,3.5477 3.12386,3.55313 3.12577,3.55837 3.12831,3.56337 3.13144,3.56811 3.13512,3.57257 3.13933,3.57672 3.14402,3.58053 3.14915,3.58398 3.1547,3.58704 3.16062,3.58968 3.16688,3.59188 3.17344,3.5936 3.18026,3.59483 3.18731,3.59553 3.19456,3.59568 3.21661,3.56893 3.21002,3.56879 3.20361,3.56815 3.19741,3.56704 3.19145,3.56547 3.18576,3.56348 3.18038,3.56107 3.17533,3.55829 3.17067,3.55516 3.1664,3.55169 3.16258,3.54792 3.15923,3.54386 3.15638,3.53955 3.15408,3.53501 3.15234,3.53025 3.15122,3.52531 "/>
    <polygon id="_515873784" class="fil7" points="3.4391,3.56626 3.4393,3.59274 3.44672,3.59272 3.45415,3.5927 3.46158,3.59269 3.46901,3.59267 3.47645,3.59267 3.48389,3.59266 3.49132,3.59266 3.49876,3.59267 3.5062,3.59267 3.51364,3.59269 3.52109,3.5927 3.52853,3.59271 3.53598,3.59274 3.54343,3.59276 3.55087,3.59279 3.55833,3.59282 3.56578,3.59286 3.57323,3.5929 3.58069,3.59294 3.58815,3.59299 3.5956,3.59304 3.60307,3.5931 3.61053,3.59316 3.61799,3.59322 3.62546,3.59329 3.63292,3.59336 3.64039,3.59343 3.64785,3.59351 3.65532,3.59359 3.6628,3.59368 3.67027,3.59377 3.67774,3.59387 3.65587,3.56728 3.64908,3.56719 3.64229,3.56711 3.63549,3.56703 3.6287,3.56696 3.62191,3.56689 3.61512,3.56682 3.60834,3.56676 3.60155,3.56669 3.59477,3.56664 3.58798,3.56658 3.5812,3.56653 3.57442,3.56648 3.56764,3.56644 3.56086,3.5664 3.55409,3.56637 3.54731,3.56633 3.54054,3.5663 3.53376,3.56628 3.52699,3.56625 3.52022,3.56623 3.51346,3.56622 3.50669,3.5662 3.49993,3.56619 3.49316,3.56619 3.4864,3.56619 3.47964,3.56619 3.47288,3.56619 3.46612,3.5662 3.45936,3.56621 3.45261,3.56622 3.44585,3.56624 "/>
    <polygon id="_515872536" class="fil7" points="3.65587,3.56728 3.67774,3.59387 3.6794,3.59399 3.68107,3.59408 3.68275,3.59413 3.68444,3.59417 3.68613,3.59416 3.68783,3.59413 3.68954,3.59406 3.69125,3.59396 3.66815,3.56737 3.66659,3.56746 3.66504,3.56752 3.6635,3.56755 3.66196,3.56755 3.66043,3.56752 3.6589,3.56747 3.65738,3.56739 "/>
    <polygon id="_515872992" class="fil7" points="3.66815,3.56737 3.69125,3.59396 3.69843,3.5932 3.70534,3.5919 3.71195,3.5901 3.71823,3.58783 3.72413,3.58511 3.72965,3.58199 3.73473,3.57848 3.73935,3.57461 3.74346,3.57042 3.74706,3.56594 3.75009,3.56119 3.75253,3.5562 3.75434,3.55102 3.7555,3.54566 3.75596,3.54016 3.7557,3.53454 3.72675,3.51335 3.72698,3.51845 3.72656,3.52346 3.72551,3.52833 3.72386,3.53304 3.72164,3.53757 3.71889,3.54189 3.71562,3.54596 3.71187,3.54977 3.70768,3.55329 3.70306,3.55648 3.69805,3.55932 3.69268,3.56179 3.68697,3.56386 3.68096,3.56549 3.67468,3.56667 "/>
    <polygon id="_515873256" class="fil7" points="3.72675,3.51335 3.7557,3.53454 3.74957,3.47963 3.72117,3.46343 "/>
    <polygon id="_515872704" class="fil7" points="3.72117,3.46343 3.74957,3.47963 3.74942,3.47795 3.72104,3.4619 "/>
    <polygon id="_515872872" class="fil7" points="3.72104,3.4619 3.74942,3.47795 3.73654,3.36175 3.70933,3.35626 "/>
    <polygon id="_515872224" class="fil7" points="3.70933,3.35626 3.73654,3.36175 3.73586,3.35646 3.73455,3.35132 3.73263,3.34637 3.73015,3.34163 3.72712,3.33711 3.72359,3.33285 3.71958,3.32887 3.71512,3.32519 3.71025,3.32185 3.70499,3.31886 3.69937,3.31624 3.69343,3.31403 3.6872,3.31225 3.6807,3.31092 3.67398,3.31007 3.66705,3.30972 3.64615,3.30896 3.65245,3.30928 3.65856,3.31006 3.66447,3.31126 3.67013,3.31288 3.67554,3.31489 3.68064,3.31727 3.68542,3.31999 3.68985,3.32303 3.69391,3.32637 3.69755,3.33 3.70076,3.33387 3.70351,3.33797 3.70577,3.34229 3.70751,3.34679 3.70871,3.35146 "/>
    <polygon id="_515872488" class="fil7" points="3.20865,3.31076 3.18581,3.31169 3.17858,3.31211 3.17158,3.31307 3.16484,3.31455 3.1584,3.31652 3.15228,3.31894 3.14654,3.3218 3.14118,3.32507 3.13627,3.3287 3.13182,3.33269 3.12788,3.33699 3.12447,3.34158 3.12164,3.34644 3.11942,3.35152 3.11783,3.35681 3.11693,3.36229 3.11674,3.36791 3.14586,3.36186 3.14604,3.35675 3.14686,3.35178 3.1483,3.34697 3.15032,3.34234 3.15289,3.33793 3.15599,3.33376 3.15957,3.32984 3.16362,3.32622 3.16809,3.32292 3.17295,3.31995 3.17818,3.31735 3.18374,3.31515 3.18959,3.31335 3.19572,3.31201 3.20209,3.31114 "/>
    <polygon id="_515871792" class="fil7" points="3.14586,3.36186 3.11674,3.36791 3.11699,3.3679 3.14609,3.36186 "/>
    <polygon id="_515872032" class="fil7" points="3.14609,3.36186 3.11699,3.3679 3.11967,3.45431 3.14853,3.44041 "/>
    <polygon id="_515871672" class="fil7" points="3.14853,3.44041 3.11967,3.45431 3.1222,3.5374 3.15083,3.51595 "/>
    <polygon id="_515871264" class="fil7" points="3.15083,3.51595 3.1222,3.5374 3.12216,3.53799 3.12213,3.53857 3.1221,3.53916 3.12208,3.53974 3.12207,3.54033 3.12207,3.54092 3.12207,3.54151 3.12208,3.5421 3.15072,3.52022 3.15071,3.51968 3.15071,3.51915 3.15071,3.51861 3.15072,3.51807 3.15074,3.51754 3.15076,3.51701 3.1508,3.51648 "/>
   </g>
   <g>
    <polygon id="_515871168" class="fil7" points="3.23156,3.96031 3.20824,3.98916 3.21639,3.989 3.22454,3.98886 3.23268,3.98871 3.24082,3.98857 3.24897,3.98844 3.2571,3.9883 3.26523,3.98817 3.27335,3.98804 3.28148,3.98792 3.2896,3.9878 3.29772,3.98769 3.30583,3.98758 3.31394,3.98747 3.32203,3.98737 3.33013,3.98727 3.33823,3.98717 3.34631,3.98709 3.35441,3.987 3.36249,3.98691 3.37057,3.98683 3.37864,3.98676 3.38671,3.98669 3.39478,3.98662 3.40284,3.98656 3.4109,3.9865 3.41894,3.98645 3.427,3.9864 3.43504,3.98635 3.44308,3.98631 3.45112,3.98627 3.45915,3.98624 3.46717,3.98621 3.46697,3.95763 3.45967,3.95766 3.45237,3.95769 3.44506,3.95772 3.43776,3.95776 3.43044,3.9578 3.42312,3.95785 3.4158,3.9579 3.40848,3.95795 3.40115,3.958 3.39382,3.95807 3.38648,3.95813 3.37914,3.9582 3.3718,3.95827 3.36445,3.95835 3.3571,3.95843 3.34974,3.95851 3.34239,3.95859 3.33502,3.95869 3.32766,3.95878 3.32028,3.95887 3.31291,3.95897 3.30554,3.95908 3.29815,3.95919 3.29077,3.9593 3.28338,3.95941 3.27599,3.95953 3.26859,3.95965 3.26119,3.95978 3.25379,3.95991 3.24639,3.96004 3.23898,3.96017 "/>
    <polygon id="_515871360" class="fil7" points="3.16186,3.90795 3.13156,3.93156 3.13213,3.93761 3.13344,3.94347 3.13546,3.94911 3.13815,3.95451 3.14146,3.95962 3.14535,3.96444 3.1498,3.96891 3.15477,3.97303 3.1602,3.97675 3.16607,3.98006 3.17233,3.98291 3.17896,3.98528 3.18589,3.98713 3.19311,3.98846 3.20057,3.98921 3.20824,3.98937 3.23157,3.96051 3.2246,3.96036 3.21782,3.95967 3.21126,3.95847 3.20495,3.95678 3.19893,3.95463 3.19324,3.95204 3.1879,3.94903 3.18296,3.94565 3.17845,3.94191 3.1744,3.93784 3.17086,3.93346 3.16785,3.92881 3.16541,3.92391 3.16357,3.91878 3.16238,3.91345 "/>
    <polygon id="_515907360" class="fil7" points="3.46697,3.95763 3.46717,3.98621 3.47503,3.98619 3.48289,3.98616 3.49075,3.98615 3.49861,3.98613 3.50648,3.98613 3.51435,3.98612 3.52221,3.98612 3.53009,3.98613 3.53796,3.98613 3.54583,3.98615 3.55371,3.98616 3.56158,3.98618 3.56946,3.9862 3.57734,3.98623 3.58522,3.98626 3.59311,3.9863 3.60099,3.98634 3.60888,3.98638 3.61677,3.98643 3.62466,3.98648 3.63254,3.98653 3.64044,3.98659 3.64833,3.98666 3.65623,3.98672 3.66413,3.9868 3.67202,3.98687 3.67993,3.98695 3.68783,3.98704 3.69573,3.98713 3.70364,3.98722 3.71155,3.98732 3.71945,3.98742 3.69631,3.95873 3.68912,3.95864 3.68194,3.95855 3.67475,3.95846 3.66756,3.95838 3.66038,3.95831 3.6532,3.95823 3.64602,3.95817 3.63884,3.9581 3.63166,3.95804 3.62448,3.95798 3.61731,3.95793 3.61013,3.95787 3.60296,3.95783 3.59579,3.95778 3.58862,3.95774 3.58145,3.95771 3.57428,3.95768 3.56712,3.95765 3.55996,3.95762 3.5528,3.9576 3.54563,3.95758 3.53847,3.95757 3.53132,3.95756 3.52416,3.95756 3.517,3.95755 3.50985,3.95755 3.5027,3.95756 3.49555,3.95756 3.4884,3.95757 3.48126,3.95759 3.47411,3.95761 "/>
    <polygon id="_515907312" class="fil7" points="3.69631,3.95873 3.71945,3.98742 3.7212,3.98755 3.72298,3.98765 3.72475,3.98771 3.72653,3.98774 3.72832,3.98774 3.73012,3.9877 3.73193,3.98763 3.73374,3.98752 3.7093,3.95882 3.70765,3.95892 3.70601,3.95898 3.70438,3.95902 3.70275,3.95902 3.70113,3.959 3.69952,3.95894 3.69791,3.95885 "/>
    <polygon id="_515907384" class="fil7" points="3.7093,3.95882 3.73374,3.98752 3.74134,3.9867 3.74865,3.9853 3.75565,3.98336 3.76228,3.98091 3.76853,3.97798 3.77437,3.9746 3.77974,3.97081 3.78463,3.96664 3.78898,3.96212 3.79279,3.95728 3.796,3.95216 3.79857,3.94678 3.80049,3.94119 3.80172,3.9354 3.8022,3.92946 3.80193,3.9234 3.7713,3.90053 3.77154,3.90604 3.7711,3.91144 3.76998,3.9167 3.76824,3.92179 3.76589,3.92668 3.76298,3.93133 3.75952,3.93573 3.75556,3.93984 3.75112,3.94363 3.74624,3.94708 3.74093,3.95015 3.73525,3.95281 3.72922,3.95504 3.72286,3.9568 3.71621,3.95808 "/>
    <polygon id="_515906712" class="fil7" points="3.7713,3.90053 3.80193,3.9234 3.79545,3.86415 3.7654,3.84667 "/>
    <polygon id="_515906400" class="fil7" points="3.7654,3.84667 3.79545,3.86415 3.79529,3.86233 3.76525,3.84502 "/>
    <polygon id="_515906376" class="fil7" points="3.76525,3.84502 3.79529,3.86233 3.78166,3.73694 3.75287,3.73103 "/>
    <polygon id="_515906424" class="fil7" points="3.75287,3.73103 3.78166,3.73694 3.78094,3.73124 3.77955,3.7257 3.77752,3.72035 3.77489,3.71524 3.77169,3.71036 3.76796,3.70577 3.76371,3.70147 3.759,3.6975 3.75384,3.69389 3.74828,3.69067 3.74233,3.68784 3.73605,3.68545 3.72945,3.68353 3.72258,3.68209 3.71546,3.68118 3.70813,3.6808 3.68602,3.67998 3.69269,3.68033 3.69916,3.68117 3.70541,3.68247 3.7114,3.68422 3.71711,3.68639 3.72252,3.68895 3.72757,3.69189 3.73226,3.69517 3.73655,3.69878 3.74041,3.70268 3.74381,3.70686 3.74671,3.71129 3.74911,3.71594 3.75094,3.7208 3.75221,3.72584 "/>
    <polygon id="_515906328" class="fil7" points="3.22315,3.68192 3.19898,3.68293 3.19133,3.68338 3.18393,3.68442 3.1768,3.68601 3.16998,3.68814 3.16351,3.69076 3.15743,3.69384 3.15176,3.69736 3.14657,3.70128 3.14186,3.70558 3.13769,3.71023 3.13408,3.71518 3.13109,3.72043 3.12874,3.72591 3.12706,3.73162 3.12611,3.73753 3.1259,3.74359 3.15672,3.73707 3.15691,3.73156 3.15777,3.72619 3.1593,3.721 3.16143,3.716 3.16416,3.71124 3.16743,3.70674 3.17122,3.70252 3.1755,3.69861 3.18023,3.69504 3.18538,3.69184 3.19091,3.68904 3.19679,3.68666 3.20299,3.68472 3.20947,3.68328 3.2162,3.68233 "/>
    <polygon id="_515905728" class="fil7" points="3.15672,3.73707 3.1259,3.74359 3.12617,3.74359 3.15696,3.73706 "/>
    <polygon id="_515906208" class="fil7" points="3.15696,3.73706 3.12617,3.74359 3.129,3.83683 3.15954,3.82183 "/>
    <polygon id="_515906040" class="fil7" points="3.15954,3.82183 3.129,3.83683 3.13169,3.92649 3.16198,3.90334 "/>
    <polygon id="_515906184" class="fil7" points="3.16198,3.90334 3.13169,3.92649 3.13164,3.92712 3.1316,3.92775 3.13157,3.92839 3.13156,3.92902 3.13154,3.92965 3.13154,3.93028 3.13155,3.93092 3.13156,3.93156 3.16186,3.90795 3.16185,3.90737 3.16185,3.90679 3.16185,3.90621 3.16186,3.90563 3.16187,3.90506 3.1619,3.90449 3.16194,3.90391 "/>
   </g>
   <g>
    <polygon id="_515905368" class="fil7" points="4.2394,3.60064 4.21798,3.62539 4.22513,3.62619 4.23233,3.62701 4.23956,3.62783 4.24681,3.62866 4.2541,3.6295 4.26142,3.63034 4.26878,3.6312 4.27616,3.63206 4.28358,3.63293 4.29103,3.6338 4.29851,3.63469 4.30602,3.63557 4.31357,3.63647 4.32115,3.63738 4.32876,3.63829 4.33639,3.63922 4.34406,3.64014 4.35176,3.64108 4.3595,3.64202 4.36726,3.64297 4.37506,3.64393 4.38288,3.6449 4.39074,3.64587 4.39863,3.64685 4.40655,3.64784 4.4145,3.64883 4.42248,3.64984 4.43049,3.65085 4.43853,3.65186 4.44661,3.65289 4.45471,3.65392 4.46284,3.65495 4.46201,3.62752 4.45461,3.62657 4.44725,3.62563 4.43991,3.6247 4.4326,3.62378 4.42531,3.62286 4.41806,3.62195 4.41083,3.62105 4.40363,3.62015 4.39646,3.61926 4.38932,3.61837 4.3822,3.6175 4.37512,3.61662 4.36806,3.61576 4.36103,3.6149 4.35403,3.61405 4.34706,3.61321 4.34011,3.61237 4.33319,3.61154 4.3263,3.61072 4.31944,3.6099 4.31261,3.60909 4.30581,3.60828 4.29904,3.60749 4.2923,3.6067 4.28558,3.60592 4.2789,3.60514 4.27224,3.60437 4.26561,3.60361 4.25902,3.60286 4.25245,3.60211 4.24591,3.60137 "/>
    <polygon id="_515905248" class="fil7" points="4.46201,3.62752 4.46284,3.65495 4.47066,3.65595 4.47845,3.65696 4.48623,3.65796 4.49399,3.65896 4.50173,3.65996 4.50945,3.66097 4.51715,3.66198 4.52483,3.66298 4.5325,3.66398 4.54015,3.665 4.54778,3.66601 4.55539,3.66702 4.56298,3.66803 4.57055,3.66904 4.5781,3.67006 4.58564,3.67107 4.59316,3.67208 4.60066,3.67309 4.60814,3.67411 4.6156,3.67513 4.62305,3.67614 4.63048,3.67716 4.63789,3.67819 4.64528,3.6792 4.65265,3.68022 4.66001,3.68124 4.66735,3.68227 4.67467,3.68329 4.68198,3.68431 4.68926,3.68533 4.69653,3.68636 4.70378,3.68739 4.68104,3.657 4.67445,3.65607 4.66784,3.65513 4.66122,3.6542 4.65458,3.65328 4.64793,3.65235 4.64125,3.65141 4.63456,3.65048 4.62786,3.64956 4.62114,3.64863 4.61441,3.6477 4.60765,3.64678 4.60088,3.64585 4.5941,3.64493 4.5873,3.644 4.58048,3.64308 4.57364,3.64216 4.56679,3.64124 4.55993,3.64032 4.55304,3.6394 4.54614,3.63848 4.53922,3.63756 4.53229,3.63665 4.52533,3.63573 4.51837,3.63481 4.51138,3.6339 4.50438,3.63298 4.49736,3.63207 4.49032,3.63116 4.48327,3.63025 4.4762,3.62933 4.46911,3.62843 "/>
    <polygon id="_515904936" class="fil7" points="4.68104,3.657 4.70378,3.68739 4.70734,3.688 4.71094,3.68847 4.71459,3.6888 4.71827,3.68897 4.72197,3.689 4.7257,3.68888 4.72944,3.6886 4.73319,3.68817 4.70778,3.65771 4.70437,3.65811 4.70097,3.65836 4.69758,3.65847 4.69421,3.65844 4.69087,3.65828 4.68756,3.65798 4.68428,3.65756 "/>
    <polygon id="_515904888" class="fil7" points="4.75687,3.59983 4.78719,3.6245 4.78495,3.61648 4.78281,3.60882 4.78078,3.60153 4.77885,3.59457 4.777,3.58794 4.77525,3.58164 4.77358,3.57563 4.77199,3.56991 4.77048,3.56446 4.76904,3.55928 4.76768,3.55435 4.76638,3.54964 4.76514,3.54517 4.76396,3.5409 4.76284,3.53682 4.76176,3.53293 4.73376,3.51659 4.73473,3.52013 4.73575,3.52383 4.73682,3.52771 4.73795,3.53178 4.73913,3.53605 4.74037,3.54054 4.74168,3.54525 4.74306,3.5502 4.7445,3.5554 4.74602,3.56086 4.74761,3.5666 4.74929,3.57262 4.75105,3.57894 4.75289,3.58558 4.75483,3.59254 "/>
    <polygon id="_515904528" class="fil7" points="4.70778,3.65771 4.73319,3.68817 4.74019,3.68691 4.74682,3.68514 4.75308,3.68289 4.75893,3.68019 4.76433,3.67707 4.76928,3.67357 4.77373,3.66973 4.77767,3.66556 4.78106,3.66109 4.78388,3.65638 4.7861,3.65144 4.78769,3.6463 4.78863,3.64101 4.78889,3.63559 4.78844,3.63007 4.78725,3.62448 4.75693,3.59982 4.758,3.60489 4.75841,3.60991 4.75818,3.61484 4.75733,3.61965 4.75588,3.62432 4.75386,3.62881 4.7513,3.63309 4.74822,3.63715 4.74463,3.64094 4.74059,3.64444 4.73609,3.64763 4.73117,3.65046 4.72586,3.65291 4.72017,3.65495 4.71414,3.65657 "/>
    <polygon id="_515904096" class="fil7" points="4.73376,3.51659 4.76176,3.53293 4.73785,3.44581 4.71202,3.43739 "/>
    <polygon id="_515904312" class="fil7" points="4.71202,3.43739 4.73785,3.44581 4.73678,3.44143 4.73526,3.43715 4.73331,3.43297 4.73097,3.42894 4.72824,3.42507 4.72513,3.42136 4.72167,3.41785 4.71787,3.41454 4.71376,3.41146 4.70933,3.40862 4.70463,3.40605 4.69965,3.40375 4.69442,3.40175 4.68896,3.40007 4.68328,3.39872 4.6624,3.39457 4.66757,3.3958 4.67254,3.39733 4.67729,3.39915 4.68181,3.40124 4.68609,3.40357 4.69011,3.40616 4.69385,3.40896 4.69731,3.41196 4.70045,3.41516 4.70328,3.41853 4.70576,3.42205 4.70789,3.42572 4.70966,3.4295 4.71104,3.4334 "/>
    <polygon id="_515904456" class="fil7" points="4.21425,3.33946 4.19031,3.3381 4.18734,3.33802 4.18436,3.33804 4.18135,3.33816 4.17834,3.33837 4.20337,3.33972 4.20611,3.33952 4.20884,3.33941 4.21156,3.33939 "/>
    <polygon id="_515903376" class="fil7" points="4.20337,3.33972 4.17834,3.33837 4.17125,3.3393 4.16447,3.34074 4.15803,3.34269 4.15197,3.3451 4.14631,3.34794 4.14109,3.35119 4.13633,3.35482 4.13207,3.35879 4.12832,3.36306 4.12513,3.36763 4.12252,3.37244 4.12052,3.37748 4.11917,3.3827 4.11848,3.38809 4.1185,3.3936 4.11925,3.39922 4.14965,3.39503 4.14897,3.38993 4.14896,3.38491 4.14958,3.38001 4.15081,3.37526 4.15263,3.37069 4.155,3.36631 4.1579,3.36216 4.1613,3.35827 4.16518,3.35467 4.16951,3.35137 4.17426,3.34841 4.1794,3.34583 4.18491,3.34364 4.19076,3.34187 4.19692,3.34056 "/>
    <polygon id="_515903808" class="fil7" points="4.14965,3.39503 4.11925,3.39922 4.11952,3.3992 4.1499,3.39501 "/>
    <polygon id="_515903736" class="fil7" points="4.1499,3.39501 4.11952,3.3992 4.12119,3.40757 4.1228,3.41562 4.12433,3.42336 4.12583,3.43081 4.12726,3.43799 4.12866,3.44493 4.13001,3.45166 4.13133,3.45819 4.13261,3.46454 4.13386,3.47074 4.13509,3.47682 4.1363,3.48279 4.13749,3.48868 4.13867,3.4945 4.13984,3.50028 4.14102,3.50606 4.16944,3.49216 4.16837,3.48691 4.16731,3.48165 4.16623,3.47635 4.16515,3.471 4.16405,3.46557 4.16293,3.46005 4.1618,3.45441 4.16063,3.44864 4.15943,3.4427 4.1582,3.43659 4.15694,3.43028 4.15563,3.42374 4.15428,3.41697 4.15287,3.40994 4.15142,3.40263 "/>
    <polygon id="_515903424" class="fil7" points="4.16944,3.49216 4.14102,3.50606 4.15454,3.57265 4.18173,3.55269 "/>
    <polygon id="_515902608" class="fil7" points="4.18173,3.55269 4.15454,3.57265 4.15524,3.57752 4.15648,3.5823 4.15823,3.58694 4.16048,3.59143 4.1632,3.59575 4.16637,3.59987 4.16997,3.60378 4.17397,3.60745 4.17835,3.61086 4.18309,3.61398 4.18817,3.6168 4.19356,3.6193 4.19924,3.62143 4.20518,3.62319 4.21137,3.62456 4.21779,3.62551 4.23923,3.60075 4.2334,3.59989 4.22777,3.59864 4.22237,3.59704 4.2172,3.59509 4.2123,3.59283 4.20769,3.59027 4.20338,3.58743 4.1994,3.58433 4.19576,3.581 4.19249,3.57744 4.18961,3.57369 4.18714,3.56976 4.18509,3.56568 4.1835,3.56146 4.18237,3.55712 "/>
    <polygon id="_515903184" class="fil7" points="4.23923,3.60075 4.21779,3.62551 4.21798,3.62539 4.2394,3.60064 "/>
   </g>
   <path id="_515903016" class="fil8" d="M4.52409 3.74056c-0.0841181,-0.00940157 -0.165654,-0.0178819 -0.244634,-0.0254252 -0.00643701,-0.000787402 -0.0131339,-0.000822835 -0.0199094,0 -0.0351102,0.00424803 -0.0591339,0.0297835 -0.0536614,0.0570197l0.000244094 -3.14961e-005 0.0179016 0.0885c0.00754331,0.0372598 0.0151929,0.0749685 0.0228386,0.113083 0.00192913,0.0233465 0.0249173,0.0431339 0.0559488,0.0462559l0.000232283 -0.000169291c0.0776614,0.00780315 0.16185,0.0170669 0.252343,0.0277244 0.0845354,0.00995276 0.167634,0.0204291 0.249409,0.031378 0.00893307,0.00159449 0.0184409,0.00173228 0.0279843,0.000133858 0.0347362,-0.0058189 0.0568189,-0.0323898 0.049315,-0.0593346l-5.51181e-005 1.1811e-005 -0.0295945 -0.106437 -0.0279882 -0.10135c-0.00403937,-0.0208307 -0.024937,-0.0382008 -0.0531772,-0.041815l-0.00015748 0.000114173c-0.0842638,-0.0107756 -0.166606,-0.0206693 -0.247039,-0.0296575z"/>
   <path id="_515902512" class="fil10" d="M4.83701 2.36018c-0.0298504,-0.313598 -0.655925,-0.564055 -1.42389,-0.564055 -0.768878,0 -1.39553,0.251055 -1.42399,0.565181 -0.000653543,0.00725197 -0.000992126,0.0145354 -0.00100787,0.0218504l0.313319 -0.0117638c0.00229921,-0.00537008 0.00489764,-0.0105591 0.00783071,-0.0155866 0.0453268,-0.0776181 0.170539,-0.116079 0.494555,-0.170409 0.195138,-0.0327205 0.401965,-0.0490787 0.609508,-0.0490787 0.207547,0 0.41437,0.0163583 0.609512,0.0490787 0.324008,0.0543307 0.44922,0.0927913 0.494543,0.170409 0.00272835,0.00467717 0.00516929,0.00949213 0.00734646,0.0144646l0.313382 0.0117638c-4.72441e-005,-0.00731496 -0.00042126,-0.0146024 -0.00111024,-0.0218543z"/>
  </g>
 </g>
 <rect class="fil11" width="6.82666" height="6.82666"/>
</svg>
